<svg width="48" height="48" viewBox="0 0 48 48" fill="none" xmlns="http://www.w3.org/2000/svg"><g clip-path="url(#a)"><mask id="b" style="mask-type:luminance" maskUnits="userSpaceOnUse" x="0" y="0" width="48" height="48"><path d="M0 0h48v48H0V0Z" fill="#fff"/></mask><g mask="url(#b)" stroke="#6F9CC1" stroke-width="1.4" stroke-miterlimit="10" stroke-linecap="round" stroke-linejoin="round"><path d="M5.857 28.463.731 14.212a.484.484 0 0 1 .29-.614c2.713-.975 5.544-1.928 8.4-2.89m27.19 27.855-16.378 5.886-7.188 2.585a.48.48 0 0 1-.614-.289L6.936 31.461"/><path d="m39.85 38.007-17.008 2.916-7.53 1.292a.486.486 0 0 1-.555-.393l-2.78-16.219L8.914 7.748a.481.481 0 0 1 .39-.555l8.582-1.471"/><path d="M17.886 20.339V1.437a.5.5 0 0 1 .5-.5h22.698c.152 0 .194.062.453.308l5.477 5.222c.221.216.283.24.283.384v30.654a.502.502 0 0 1-.5.502H18.386a.503.503 0 0 1-.5-.502V23.601"/><path d="m40.71.938.01 4.952c0 1.108 1.015 1.038 1.504 1.038h5.073m-4.513 4.224H22.681m20.103 4.995H22.681m20.103 4.995H22.681m20.103 4.995H22.681m20.103 4.996H22.681"/></g></g><defs><clipPath id="a"><path fill="#fff" d="M0 0h48v48H0z"/></clipPath></defs></svg>