<svg width="48" height="48" viewBox="0 0 48 48" fill="none" xmlns="http://www.w3.org/2000/svg"><mask id="a" style="mask-type:luminance" maskUnits="userSpaceOnUse" x="0" y="0" width="48" height="48"><path d="M0 0h48v48H0V0Z" fill="#fff"/></mask><g mask="url(#a)" stroke="#6F9CC1" stroke-width="1.4" stroke-miterlimit="10"><path d="M28.672 37.094v9.5h-9.344v-9.5"/><path d="M16.517 46.594h14.966" stroke-linecap="round"/><path d="M39.139 37.094H8.86a2.674 2.674 0 0 1-2.674-2.674V4.08A2.674 2.674 0 0 1 8.86 1.406h30.277a2.674 2.674 0 0 1 2.674 2.674v30.34a2.674 2.674 0 0 1-2.673 2.674Z"/><path d="M33.484 21.594a9.549 9.549 0 0 1-19.097 0"/><path d="m12.51 25.087 1.06-3.56a.497.497 0 0 1 .79-.244l2.879 2.347m18.251 1.457-1.06-3.56a.497.497 0 0 0-.79-.244l-2.879 2.347" stroke-linecap="round"/><path d="M24 31.142V14.73m3.686-3.686a3.686 3.686 0 1 1-7.372 0 3.686 3.686 0 0 1 7.372 0Z"/></g></svg>