<svg width="48" height="48" viewBox="0 0 48 48" fill="none" xmlns="http://www.w3.org/2000/svg"><path clip-rule="evenodd" d="M16.206 30.462a2.812 2.812 0 1 1 0 5.625 2.812 2.812 0 0 1 0-5.625Zm24.763 0a2.813 2.813 0 1 1 0 5.625 2.813 2.813 0 0 1 0-5.625Zm-33.2 0a2.812 2.812 0 1 1 0 5.625 2.812 2.812 0 0 1 0-5.625Z" stroke="#6F9CC1" stroke-width="1.4" stroke-miterlimit="22.926"/><path d="M46.594 18.76h-8.795v5.132h9.498" stroke="#6F9CC1" stroke-width="1.4" stroke-miterlimit="22.926"/><path d="M44.484 28.356a.7.7 0 1 0 0 1.4v-1.4Zm0 1.4h2.813v-1.4h-2.813v1.4Z" fill="#6F9CC1"/><path d="M.703 30.462h33.283a1 1 0 0 0 1-1V15.725a1 1 0 0 1 1-1h5.502a1 1 0 0 1 .648.239l4.167 3.548a1 1 0 0 1 .343.626l.65 4.754v8.382a1 1 0 0 1-1 1h-2.515" stroke="#6F9CC1" stroke-width="1.4" stroke-miterlimit="22.926"/><path d="M37.095 26.704h2.813M14.68 15.531v11.313m-7.03 0V15.53m3.515 11.313V15.53m14.062 11.313V15.53m-3.515 0v11.313m-3.516 0V15.53m13.978 14.932V12.913a1 1 0 0 0-1-1H1.704a1 1 0 0 0-1 1v2.516m0 3.406v13.44a1 1 0 0 0 1 1h3.252m5.625 0h2.812m5.625 0h12.216m3.407 0h3.515" stroke="#6F9CC1" stroke-width="1.4" stroke-miterlimit="22.926" stroke-linecap="round"/><path d="M29.361 19.835v-1m0-2.813v-1" stroke="#6F9CC1" stroke-width="1.4" stroke-miterlimit="22.926" stroke-linecap="round" stroke-linejoin="bevel"/></svg>