<svg width="48" height="48" viewBox="0 0 48 48" fill="none" xmlns="http://www.w3.org/2000/svg"><g clip-path="url(#a)"><mask id="b" style="mask-type:luminance" maskUnits="userSpaceOnUse" x="0" y="0" width="48" height="48"><path d="M0 0h48v48H0V0Z" fill="#fff"/></mask><g mask="url(#b)"><path d="M41.438 15.563v31.5m5.625-39.938v22.5a5.625 5.625 0 1 1-11.25 0v-22.5" stroke="#6F9CC1" stroke-width="1.4" stroke-miterlimit="10" stroke-linecap="round" stroke-linejoin="round"/><path d="M47.063 9.938a5.625 5.625 0 0 0-5.626 5.624m-5.624-5.624a5.625 5.625 0 0 1 5.624 5.624m5.626 7.145c0 1.945-.95 3.852-2.663 4.774a5.626 5.626 0 0 0-2.962 4.956m-5.625-9.73c0 1.945.948 3.852 2.662 4.774a5.626 5.626 0 0 1 2.962 4.956m5.626-18.167c0 1.945-.95 3.852-2.663 4.773A5.626 5.626 0 0 0 41.438 24m-5.625-9.73c0 1.945.948 3.852 2.662 4.773A5.626 5.626 0 0 1 41.437 24m5.626 17.438c-.282.125-5.626.294-5.626 5.624M24 21.188v25.875m-5.625-42.75V35.25a5.625 5.625 0 1 0 11.25 0V4.312" stroke="#6F9CC1" stroke-width="1.4" stroke-miterlimit="10" stroke-linecap="round" stroke-linejoin="round"/><path d="M18.375 7.125A5.625 5.625 0 0 1 24 12.75m5.625-5.625A5.625 5.625 0 0 0 24 12.75m-5.625 15.582c0 1.945.949 3.852 2.663 4.774A5.626 5.626 0 0 1 24 38.062" stroke="#6F9CC1" stroke-width="1.4" stroke-miterlimit="10" stroke-linecap="round" stroke-linejoin="round"/><path d="M29.625 28.332c0 1.945-.949 3.852-2.663 4.774A5.626 5.626 0 0 0 24 38.062m-5.625-18.167c0 1.945.949 3.852 2.663 4.773A5.626 5.626 0 0 1 24 29.625" stroke="#6F9CC1" stroke-width="1.4" stroke-miterlimit="10" stroke-linecap="round" stroke-linejoin="round"/><path d="M29.625 19.895c0 1.945-.949 3.852-2.663 4.773A5.626 5.626 0 0 0 24 29.625m-5.625-18.168c0 1.945.949 3.852 2.663 4.774A5.626 5.626 0 0 1 24 21.187" stroke="#6F9CC1" stroke-width="1.4" stroke-miterlimit="10" stroke-linecap="round" stroke-linejoin="round"/><path d="M29.625 11.457c0 1.945-.949 3.852-2.663 4.774A5.626 5.626 0 0 0 24 21.187m0 .001V12.75M24 .938V12.75M6.563 15.563v31.5M.938 7.125v22.5a5.625 5.625 0 1 0 11.25 0v-22.5" stroke="#6F9CC1" stroke-width="1.4" stroke-miterlimit="10" stroke-linecap="round" stroke-linejoin="round"/><path d="M.938 9.938a5.625 5.625 0 0 1 5.625 5.624" stroke="#6F9CC1" stroke-width="1.4" stroke-miterlimit="10" stroke-linecap="round" stroke-linejoin="round"/><path d="M12.188 9.938a5.625 5.625 0 0 0-5.626 5.624M.938 22.707c0 1.945.948 3.852 2.662 4.774a5.626 5.626 0 0 1 2.962 4.956" stroke="#6F9CC1" stroke-width="1.4" stroke-miterlimit="10" stroke-linecap="round" stroke-linejoin="round"/><path d="M12.188 22.707c0 1.945-.95 3.852-2.663 4.774a5.626 5.626 0 0 0-2.963 4.956M.938 14.27c0 1.945.948 3.852 2.662 4.773A5.626 5.626 0 0 1 6.562 24" stroke="#6F9CC1" stroke-width="1.4" stroke-miterlimit="10" stroke-linecap="round" stroke-linejoin="round"/><path d="M12.188 14.27c0 1.945-.95 3.852-2.663 4.773A5.626 5.626 0 0 0 6.562 24m.001-19.687v11.25M.938 41.438c.28.125 5.625.294 5.625 5.624M41.438 7.594v7.968" stroke="#6F9CC1" stroke-width="1.4" stroke-miterlimit="10" stroke-linecap="round" stroke-linejoin="round"/><path d="M42.375 3.375a.938.938 0 1 1-1.875 0 .938.938 0 0 1 1.875 0Z" fill="#6F9CC1"/></g></g><defs><clipPath id="a"><path fill="#fff" d="M0 0h48v48H0z"/></clipPath></defs></svg>