<svg width="66" height="64" viewBox="0 0 66 64" fill="none" xmlns="http://www.w3.org/2000/svg">
	<path d="M32.7637 47.3524C32.874 47.3545 32.9829 47.36 33.0942 47.36C33.4369 47.36 33.7755 47.3463 34.1121 47.3265C35.711 46.5622 37.3824 46.3376 38.9787 46.2619C39.4806 46.0617 39.9689 45.8365 40.44 45.584C38.0596 45.617 35.3955 45.7085 32.9033 47.2625C32.8569 47.2914 32.8105 47.3229 32.7637 47.3529V47.3524Z" fill="#5E93BB"/>
	<path d="M32.0466 46.8726C32.1524 46.8025 32.2587 46.7359 32.365 46.6708C34.7217 45.2297 37.3052 45.1905 39.5848 45.156C40.1583 45.1473 40.7181 45.1382 41.2548 45.1072C41.6176 44.8795 41.9703 44.6371 42.3099 44.377C41.5032 44.5004 40.5826 44.5147 39.5753 44.5304C37.217 44.5665 34.5439 44.6072 32.0435 46.1362C31.9307 46.2054 31.8173 46.276 31.7049 46.3507C31.2821 46.6322 30.9259 46.9102 30.623 47.1861C30.9027 47.2263 31.1854 47.2598 31.4711 47.2862C31.6465 47.15 31.8374 47.0128 32.0466 46.8731V46.8726Z" fill="#6295BD"/>
	<path d="M46.9771 37.9102C46.3437 38.5454 45.8831 39.3899 45.7148 40.5547C46.2157 39.7269 46.6375 38.8427 46.9771 37.9102Z" fill="#6295BD"/>
	<path d="M31.1796 45.7329C31.2844 45.6648 31.3903 45.6008 31.4956 45.5377C33.7692 44.1758 36.2539 44.1326 38.4468 44.0945C41.7262 44.0376 44.5581 43.9883 45.2005 39.6114C45.4394 37.9848 46.2839 37.1128 47.4091 36.5517C47.4751 36.3048 47.5361 36.0558 47.5915 35.8037C46.1317 36.4166 44.9068 37.4283 44.5999 39.522C44.033 43.3846 41.6859 43.4253 38.4373 43.4822C36.1692 43.5218 33.5983 43.5665 31.1867 45.0113C31.0753 45.0778 30.9635 45.1459 30.8521 45.2181C29.996 45.7756 29.4054 46.3244 28.9912 46.8656C29.2084 46.92 29.4286 46.9682 29.6508 47.014C30.0136 46.5968 30.5059 46.173 31.1811 45.7334L31.1796 45.7329Z" fill="#6698C0"/>
	<path d="M30.3114 44.5922C30.4152 44.5267 30.52 44.4647 30.6244 44.4037C32.8148 43.1201 35.2028 43.0738 37.3095 43.0327C40.5592 42.9696 43.3659 42.9153 44.0814 38.5038C44.4472 36.2486 45.9499 35.5158 47.7347 35.0554C47.7714 34.8435 47.8022 34.629 47.8314 34.4141C45.8612 34.8973 43.9323 35.7084 43.4944 38.4068C42.8584 42.3248 40.5264 42.3695 37.2985 42.4325C35.1191 42.4747 32.6495 42.523 30.3255 43.8844C30.2157 43.9489 30.1048 44.0139 29.9945 44.0836C28.7312 44.887 28.0373 45.6807 27.6357 46.4643C27.8237 46.5299 28.0152 46.5893 28.2072 46.6478C28.5745 45.9719 29.1978 45.2996 30.3114 44.5917V44.5922Z" fill="#699BC2"/>
	<path d="M29.4445 43.4527C29.5428 43.3923 29.6421 43.3353 29.7544 43.2708C31.8617 42.0634 34.154 42.0151 36.1761 41.9719C39.2614 41.9064 42.176 41.8444 42.9636 37.3968C43.4549 34.6248 45.6141 34.2431 47.9007 33.8396C47.9219 33.6384 47.9431 33.4372 47.9577 33.2334C47.9063 33.2425 47.8544 33.2517 47.803 33.2608C45.4191 33.6811 42.9535 34.1161 42.3906 37.2937C41.727 41.0404 39.6293 41.2981 36.7042 41.3723C35.6042 41.7956 34.3862 42.0273 33.0938 42.0273C32.5495 42.0273 32.021 41.9856 31.508 41.9079C30.8197 42.1051 30.1308 42.379 29.4536 42.7672C29.3493 42.8272 29.2445 42.8871 29.1402 42.9517C27.4975 43.9706 26.8036 44.9905 26.46 45.9966C26.6368 46.0754 26.8142 46.1532 26.9951 46.2253C27.3015 45.2918 27.9203 44.3974 29.4445 43.4522V43.4527Z" fill="#6D9EC4"/>
	<path d="M25.3823 45.4644C25.5542 45.5584 25.7285 45.6484 25.9049 45.7358C26.1654 44.5726 26.6965 43.4485 28.5765 42.3122C28.6632 42.2599 28.7514 42.2111 28.8386 42.1623L28.8839 42.1369C29.2825 41.9138 29.6881 41.7344 30.0968 41.5871C29.8202 41.5017 29.5501 41.4046 29.2865 41.2959C29.0593 41.398 28.8325 41.5083 28.6073 41.6343L28.5624 41.6592C28.4697 41.7111 28.3765 41.7629 28.2838 41.8188C26.2909 43.0232 25.6751 44.2524 25.3818 45.4639L25.3823 45.4644Z" fill="#71A1C6"/>
	<path d="M41.8463 36.2883C42.3794 33.503 44.5441 33.2042 46.8353 32.8881C47.2163 32.8358 47.6023 32.7819 47.9832 32.7163C47.9918 32.5217 47.9983 32.3261 48.0009 32.1289C47.5907 32.2026 47.1719 32.2615 46.7577 32.319C44.7341 32.5979 42.6525 32.8861 41.6911 34.905L42.1189 34.9061C41.7092 37.329 40.2731 39.3571 38.2197 40.6215C39.93 40.2068 41.299 39.1432 41.8458 36.2878L41.8463 36.2883Z" fill="#71A1C6"/>
	<path d="M40.2207 34.9011L40.7931 34.9027C41.4542 32.3552 43.5661 32.1428 45.7983 31.9182C46.5375 31.844 47.2929 31.7657 48.0034 31.6001C48.0009 31.41 47.9928 31.2189 47.9852 31.0273C47.2778 31.2032 46.5018 31.283 45.7434 31.3592C43.3766 31.597 40.9322 31.8445 40.2212 34.9006L40.2207 34.9011Z" fill="#75A3C8"/>
	<path d="M27.7095 41.1714C27.7891 41.1247 27.8702 41.081 27.9504 41.0373L28.0138 41.0027C28.1207 40.9448 28.228 40.8904 28.3358 40.8386C28.1428 40.7318 27.9554 40.617 27.772 40.4971C27.7644 40.5011 27.7569 40.5047 27.7493 40.5088L27.6868 40.5428C27.6017 40.5891 27.5155 40.6358 27.4298 40.6856C25.129 42.0384 24.6352 43.4582 24.3525 44.8491C24.5178 44.9583 24.6876 45.062 24.8579 45.1646C25.123 43.7824 25.5049 42.4678 27.7095 41.1714Z" fill="#75A3C8"/>
	<path d="M44.7495 30.3857C42.3107 30.5422 39.7892 30.7043 39.0792 33.9536C39.0046 34.2961 38.9184 34.6081 38.8242 34.8968L39.3956 34.8983C39.4747 34.6401 39.5468 34.3652 39.6108 34.0715C40.2326 31.2257 42.4437 31.0834 44.7843 30.933C45.8697 30.8634 46.9863 30.7882 47.9578 30.4355L47.9226 29.8623C46.9939 30.2378 45.8546 30.3141 44.7495 30.3852V30.3857Z" fill="#79A6CA"/>
	<path d="M26.8424 40.0312C26.8978 39.9997 26.9542 39.9703 27.0102 39.9408C26.859 39.8173 26.7103 39.6903 26.5672 39.5576C24.0301 41.0095 23.6593 42.5853 23.3418 44.1134C23.4995 44.2384 23.6582 44.3614 23.8215 44.4798C23.8326 44.4259 23.8442 44.372 23.8553 44.3187C24.1672 42.813 24.4615 41.3911 26.8419 40.0312H26.8424Z" fill="#79A6CA"/>
	<path d="M22.9086 43.1556C23.2548 41.6509 23.5839 40.2295 25.9381 38.9113C25.8181 38.7757 25.7012 38.6374 25.5889 38.4941C23.1097 39.915 22.7434 41.5005 22.3906 43.0341C22.3745 43.1038 22.3584 43.1724 22.3428 43.241C22.4894 43.3812 22.6381 43.5189 22.7907 43.6526C22.8321 43.4859 22.8709 43.3202 22.9086 43.1551V43.1556Z" fill="#7DA9CD"/>
	<path d="M37.9751 32.8416C37.7811 33.6796 37.5317 34.3509 37.2344 34.8931L37.83 34.8946C38.093 34.36 38.3172 33.7248 38.4936 32.9636C39.1618 30.0751 41.4092 30.0086 43.7886 29.9379C44.9354 29.9039 46.1161 29.8658 47.1354 29.5029H41.9725C40.1545 29.7042 38.5511 30.3541 37.9756 32.8416H37.9751Z" fill="#7DA9CD"/>
	<path d="M37.3752 31.8542C37.674 30.629 38.2469 29.9171 38.9887 29.5029H38.0766C37.542 29.9938 37.1217 30.7027 36.8713 31.7292C36.4994 33.2558 35.9613 34.2426 35.2891 34.8875L35.988 34.8896C36.5659 34.1954 37.0416 33.2243 37.3752 31.8542Z" fill="#81ACCF"/>
	<path d="M21.9573 41.994C22.3226 40.5452 22.7025 39.0471 25.0759 37.768C24.9822 37.6217 24.8915 37.4728 24.8053 37.3203C22.2531 38.7056 21.8283 40.3831 21.4544 41.8649C21.4252 41.9802 21.3959 42.0946 21.3662 42.2084C21.5002 42.3654 21.6373 42.5199 21.7779 42.6703C21.8424 42.4442 21.9003 42.2181 21.9568 41.994H21.9573Z" fill="#81ACCF"/>
	<path d="M36.2576 30.7449C36.3841 30.2515 36.5539 29.8429 36.759 29.5029H36.1724C36.0117 29.8246 35.8756 30.1935 35.7673 30.6174C35.016 33.5536 33.7134 34.5298 32.042 34.8779L33.5305 34.8819C34.7005 34.2574 35.6645 33.0637 36.2576 30.7444V30.7449Z" fill="#85AFD1"/>
	<path d="M21.0035 40.8344C21.4071 39.3694 21.8248 37.8545 24.2405 36.609C24.2954 36.5805 24.3509 36.5546 24.4068 36.5282C24.3372 36.3737 24.2707 36.2172 24.2088 36.0576C24.1427 36.0891 24.0762 36.1206 24.0102 36.1542C21.3965 37.5018 20.9284 39.1996 20.5157 40.6977C20.4885 40.7958 20.4618 40.8929 20.4346 40.9894C20.5555 41.1663 20.6795 41.3411 20.808 41.5118C20.878 41.2857 20.9415 41.059 21.0035 40.8344Z" fill="#85AFD1"/>
	<path d="M44.96 26.0504C44.8925 26.0829 44.8239 26.1134 44.7539 26.1413H45.9502C46.1144 26.0692 46.2747 26.0006 46.4304 25.9366L46.2747 25.4619C45.8645 25.6301 45.4281 25.8222 44.96 26.0499V26.0504Z" fill="#88B2D3"/>
	<path d="M20.0441 39.6768C20.4855 38.2016 20.9426 36.6761 23.3729 35.4681C23.4343 35.4376 23.4968 35.4092 23.5588 35.3812L23.6616 35.334C23.7488 35.2933 23.8359 35.2557 23.9231 35.2196C23.8763 35.0601 23.8329 34.899 23.7926 34.7354C23.6797 34.7811 23.5674 34.8294 23.4545 34.8822L23.3557 34.9274C23.2882 34.9579 23.2207 34.9889 23.1542 35.022C20.5314 36.3254 20.021 38.0298 19.571 39.533C19.569 39.5391 19.5669 39.5457 19.5654 39.5518C19.6723 39.7551 19.7826 39.9558 19.898 40.1525C19.9474 39.9959 19.9953 39.8374 20.0436 39.6768H20.0441Z" fill="#88B2D3"/>
	<path d="M35.1407 29.6351C35.1528 29.5893 35.1664 29.5471 35.1795 29.5029H34.665C34.665 29.5029 34.665 29.5045 34.6645 29.5055C33.6083 33.453 31.6608 33.9108 29.1826 34.0155V34.5135C31.7056 34.4053 33.9968 33.9118 35.1412 29.6356L35.1407 29.6351Z" fill="#88B2D3"/>
	<path d="M44.1952 25.1062C43.0746 25.6642 41.579 25.5473 40.1172 25.4126C40.2331 25.5803 40.3399 25.7521 40.4387 25.9284C41.8486 26.0509 43.2665 26.1093 44.4084 25.5412C45.0025 25.2454 45.5507 25.0025 46.0501 24.8033C45.9946 24.6514 45.9352 24.5005 45.8727 24.3516C45.3622 24.5558 44.8029 24.8038 44.1957 25.1062H44.1952Z" fill="#8CB4D5"/>
	<path d="M33.7066 29.5029H33.1927C32.2418 31.9427 30.8339 32.6475 29.1816 32.8731V33.363C31.0214 33.1292 32.655 32.3558 33.7066 29.5029Z" fill="#8CB4D5"/>
	<path d="M22.5059 34.328C22.5654 34.2996 22.6254 34.2737 22.6853 34.2472L22.7916 34.2005C23.0673 34.077 23.3444 33.9759 23.6221 33.892C23.5959 33.732 23.5732 33.5703 23.5535 33.4072C23.2346 33.5002 22.9156 33.6141 22.5961 33.7568L22.4943 33.8016C22.4293 33.83 22.3638 33.8585 22.2998 33.889C19.9728 35.0009 19.2699 36.4664 18.8008 37.8344C18.8885 38.0682 18.9812 38.2989 19.0794 38.526C19.0799 38.524 19.0809 38.522 19.0815 38.5205C19.5395 37.1032 20.0585 35.4968 22.5054 34.3275L22.5059 34.328Z" fill="#8CB4D5"/>
	<path d="M43.4309 24.1616C42.2981 24.7378 40.7763 24.5935 39.2803 24.4172C39.4526 24.5864 39.6128 24.7642 39.765 24.9472C41.1528 25.0951 42.5314 25.1489 43.6425 24.5838C44.356 24.2205 45 23.9375 45.5775 23.7103C45.5059 23.5685 45.4313 23.4283 45.3532 23.29C44.7773 23.5192 44.1383 23.8023 43.4319 24.1621L43.4309 24.1616Z" fill="#90B7D7"/>
	<path d="M32.0841 29.5029H31.5464C30.8818 30.6468 30.0806 31.2449 29.1816 31.561V32.0626C30.2907 31.716 31.2884 31.0015 32.0841 29.5029Z" fill="#90B7D7"/>
	<path d="M21.6387 33.1869C21.6967 33.1605 21.7556 33.1356 21.8146 33.1112L21.9209 33.0664C22.4389 32.8439 22.9614 32.7006 23.4845 32.6065C23.4764 32.449 23.4724 32.29 23.4704 32.1299C22.8949 32.2285 22.3165 32.383 21.737 32.632L21.6352 32.6746C21.5712 32.7011 21.5072 32.728 21.4442 32.757C19.5833 33.6092 18.7237 34.7495 18.2021 35.8527C18.2601 36.1033 18.3236 36.3513 18.3926 36.5957C18.8678 35.3807 19.6065 34.1173 21.6382 33.1869H21.6387Z" fill="#90B7D7"/>
	<path d="M30.2252 29.5029H29.61C29.4709 29.6457 29.3278 29.7723 29.1816 29.8866V30.4583C29.548 30.2154 29.8972 29.9034 30.2252 29.5029Z" fill="#94BAD9"/>
	<path d="M42.6673 23.2165C41.4372 23.8553 39.7436 23.6104 38.105 23.3735C38.042 23.3644 37.979 23.3553 37.916 23.3461C38.2007 23.5245 38.4703 23.7181 38.7258 23.9249C40.2133 24.1262 41.6978 24.2364 42.8754 23.6246C43.6544 23.2201 44.3523 22.9086 44.9701 22.6647C44.8839 22.5335 44.7947 22.4034 44.703 22.2754C44.0968 22.5193 43.4201 22.8247 42.6668 23.216L42.6673 23.2165Z" fill="#94BAD9"/>
	<path d="M20.771 32.0461C20.8274 32.0212 20.8849 31.9989 20.9423 31.976L21.0501 31.9328C21.8544 31.6025 22.6702 31.4673 23.4804 31.4058C23.4875 31.2498 23.4976 31.0953 23.5102 30.9424C22.6419 31.0039 21.7611 31.1446 20.8783 31.507L20.7755 31.5481C20.713 31.573 20.6506 31.5974 20.5896 31.6244C19.2583 32.2072 18.4248 32.9502 17.8564 33.7282C17.8801 33.968 17.9068 34.2064 17.9401 34.4417C18.4717 33.5585 19.2925 32.693 20.7715 32.0456L20.771 32.0461Z" fill="#94BAD9"/>
	<path d="M41.903 22.272C40.6392 22.9412 38.8801 22.645 37.1795 22.3578C36.1339 22.1815 35.0752 22.0042 34.0977 22.0311C35.0349 22.1348 35.9364 22.3797 36.7658 22.7415C36.8792 22.7603 36.9925 22.7796 37.1064 22.7984C38.8796 23.0972 40.7128 23.4062 42.1091 22.6673C42.9017 22.2476 43.6107 21.9244 44.2386 21.6698C44.1388 21.5488 44.037 21.4289 43.9322 21.3115C43.327 21.5631 42.6528 21.8746 41.903 22.2715V22.272Z" fill="#98BDDC"/>
	<path d="M20.0713 30.84L20.1797 30.7988C21.3084 30.3582 22.4608 30.3074 23.5825 30.2871C23.6031 30.1362 23.6258 29.9867 23.652 29.8389C22.4669 29.8587 21.2459 29.9029 20.0194 30.3821L19.9166 30.4212C19.8557 30.4441 19.7942 30.4675 19.7342 30.4924C18.9184 30.8329 18.283 31.2455 17.7761 31.6932C17.7746 31.7892 17.7695 31.8843 17.7695 31.9813C17.7695 32.0885 17.7751 32.1937 17.7766 32.2999C18.2911 31.777 18.9708 31.2948 19.9035 30.9055C19.959 30.8821 20.0154 30.8613 20.0713 30.84Z" fill="#98BDDC"/>
	<path d="M19.3096 29.6647C20.458 29.2404 21.6316 29.2271 22.7663 29.2144C23.111 29.2104 23.4527 29.2063 23.7908 29.1916C23.8265 29.0432 23.8648 28.8963 23.9062 28.751C23.5333 28.7713 23.1518 28.7759 22.7618 28.7805C21.5908 28.7937 20.3799 28.8074 19.162 29.2571L19.0607 29.2937C19.0002 29.315 18.9398 29.3369 18.8798 29.3603C18.522 29.5021 18.1995 29.6591 17.9048 29.8268C17.8826 30.0077 17.8594 30.1886 17.8428 30.372C18.191 30.149 18.5845 29.9437 19.037 29.7643C19.0919 29.7424 19.1479 29.7226 19.2033 29.7028L19.3096 29.6647Z" fill="#9CC0DE"/>
	<path d="M41.1394 21.3277C39.8424 22.0269 38.0198 21.6783 36.2577 21.3414C33.8158 20.8744 31.3039 20.3947 29.8496 22.4721C30.098 22.3913 30.3505 22.3181 30.61 22.2566C31.9579 20.9618 34.0219 21.3556 36.1775 21.7678C38.0132 22.1189 39.9114 22.4822 41.3425 21.7103C42.0948 21.3048 42.7705 20.9867 43.3762 20.7306C43.2633 20.6198 43.1484 20.5105 43.031 20.4033C42.4611 20.6513 41.8302 20.9552 41.1394 21.3277Z" fill="#9CC0DE"/>
	<path d="M18.3348 28.5655L18.4391 28.5299C19.5129 28.1569 20.6083 28.1503 21.668 28.1442C22.5247 28.1391 23.3657 28.133 24.1694 27.945C24.2319 27.7783 24.2989 27.6152 24.3699 27.4541C23.5259 27.7117 22.6199 27.7173 21.666 27.7229C20.5726 27.7295 19.4418 27.7361 18.303 28.1315L18.2038 28.165C18.2002 28.166 18.1962 28.1676 18.1927 28.1691C18.1559 28.3302 18.1206 28.4923 18.0889 28.6559C18.1166 28.6453 18.1418 28.6331 18.17 28.6224C18.2244 28.6021 18.2798 28.5838 18.3353 28.565L18.3348 28.5655Z" fill="#A0C2E0"/>
	<path d="M40.3758 20.3828C39.046 21.1121 37.1615 20.7106 35.3389 20.3224C32.3704 19.6902 29.3012 19.0362 28.0389 22.8383C27.9734 23.036 27.9064 23.2225 27.8389 23.4044C28.0203 23.2911 28.2057 23.1834 28.3967 23.0823C28.4093 23.0447 28.4224 23.0096 28.435 22.972C29.5793 19.5261 32.3351 20.113 35.2527 20.7345C37.1494 21.1385 39.1105 21.5562 40.5759 20.7528C41.2349 20.3915 41.8376 20.0952 42.3853 19.8498C42.2619 19.7507 42.1369 19.6536 42.0099 19.5586C41.5076 19.7903 40.9659 20.0591 40.3763 20.3828H40.3758Z" fill="#A0C2E0"/>
	<path d="M39.613 19.4381C38.2514 20.1973 36.392 19.7629 34.4233 19.303C31.3919 18.5946 28.2571 17.8628 26.9349 21.728C25.2454 26.6684 23.0796 26.6709 20.5747 26.6648C19.9232 26.6648 19.2576 26.6648 18.5844 26.7553C18.537 26.8996 18.4896 27.0434 18.4463 27.1898C19.1598 27.0749 19.8748 27.0729 20.5742 27.0734C23.1224 27.0754 25.5336 27.0775 27.3174 21.8616C28.5207 18.344 31.343 19.0031 34.3311 19.7014C36.2872 20.1582 38.3104 20.6308 39.808 19.7959C40.3295 19.5052 40.8137 19.2577 41.2667 19.0402C41.1322 18.9528 40.9951 18.868 40.8571 18.7846C40.465 18.9782 40.0518 19.1927 39.6119 19.4381H39.613Z" fill="#A4C5E2"/>
	<path d="M38.8491 18.4935C37.4559 19.2822 35.5385 18.7969 33.5088 18.2826C30.4134 17.499 27.2121 16.6885 25.83 20.6182C24.0623 25.644 21.9439 25.6257 19.4884 25.6044C19.3312 25.6029 19.173 25.6024 19.0143 25.6024C18.9593 25.7335 18.9049 25.8651 18.8535 25.9987C19.0652 25.9972 19.2758 25.9987 19.4849 26.0003C21.9797 26.0216 24.3384 26.0424 26.1993 20.7508C27.4621 17.1606 30.3524 17.8924 33.4126 18.6668C35.4277 19.177 37.5113 19.7045 39.0406 18.8386C39.3782 18.6475 39.7012 18.4737 40.0106 18.3142C39.866 18.2395 39.7194 18.1678 39.5712 18.0977C39.3379 18.2217 39.097 18.3533 38.8486 18.494L38.8491 18.4935Z" fill="#A8C8E4"/>
	<path d="M38.0858 17.5485C36.6613 18.3667 34.687 17.8301 32.5968 17.2614C31.9846 17.0947 31.3683 16.9281 30.7621 16.7949C30.3893 16.8447 30.0224 16.9087 29.6611 16.9819C30.5606 17.1044 31.521 17.3651 32.4981 17.6309C34.5706 18.1939 36.7132 18.7768 38.2737 17.8809C38.3906 17.8138 38.5055 17.7488 38.6189 17.6857C38.4642 17.6253 38.308 17.5673 38.1503 17.5114C38.1286 17.5236 38.1074 17.5353 38.0858 17.548V17.5485Z" fill="#ABCBE6"/>
	<path d="M25.0834 19.6392C25.2709 19.1199 25.4926 18.693 25.742 18.3408C25.5173 18.4552 25.2961 18.5751 25.0789 18.7001C24.9524 18.945 24.834 19.2118 24.7267 19.5081C23.1762 23.7991 21.3995 24.4618 19.5088 24.539C19.4428 24.6671 19.3808 24.7977 19.3184 24.9283C21.3541 24.8856 23.3964 24.3088 25.0834 19.6392Z" fill="#ABCBE6"/>
	<path d="M33.1241 16.6402C33.114 16.6402 33.1039 16.6396 33.0938 16.6396C32.6877 16.6396 32.2886 16.6579 31.8936 16.6844C33.7086 17.2073 35.5508 17.687 37.0031 17.1554C36.7511 17.0884 36.4966 17.0274 36.2397 16.973C35.316 17.1168 34.2533 16.9318 33.1236 16.6402H33.1241Z" fill="#AFCEE9"/>
	<path d="M23.4428 19.7998C23.2095 19.9807 22.9812 20.1682 22.7605 20.3629C22.0067 21.7969 21.2271 22.5836 20.4249 23.0074C20.2984 23.1924 20.177 23.3804 20.0586 23.5715C21.2276 23.1522 22.374 22.146 23.4428 19.7998Z" fill="#AFCEE9"/>
	<path d="M62.3154 34.5284C62.3525 34.2941 62.4304 34.0812 62.5491 33.8896C62.6704 33.7017 62.8215 33.5433 63.0023 33.4143C63.1826 33.2885 63.3834 33.1989 63.6046 33.1454C63.8258 33.092 64.0561 33.0844 64.2955 33.1227C64.5349 33.161 64.7499 33.2399 64.9404 33.3592C65.1342 33.4791 65.2971 33.6285 65.4291 33.8076C65.5611 33.9867 65.654 34.1858 65.7076 34.405C65.7608 34.6273 65.7681 34.8605 65.7294 35.1044C65.6873 35.3707 65.5973 35.6081 65.4596 35.8164C65.3219 36.0247 65.1453 36.1889 64.9299 36.3091L64.6683 35.9464C64.8382 35.865 64.9769 35.744 65.0841 35.5835C65.1945 35.4235 65.266 35.2408 65.2985 35.0354C65.3371 34.7915 65.3172 34.5662 65.2386 34.3595C65.1596 34.156 65.0327 33.986 64.8579 33.8494C64.6826 33.7161 64.4705 33.6295 64.2215 33.5897C63.9694 33.5493 63.7391 33.5668 63.5309 33.642C63.3226 33.7173 63.1499 33.8361 63.013 33.9984C62.876 34.1607 62.7892 34.3574 62.7526 34.5885C62.7155 34.8228 62.7282 35.0321 62.7906 35.2165C62.8526 35.4041 62.9624 35.5582 63.12 35.6789C63.2808 35.8 63.4873 35.8808 63.7395 35.9211L63.4997 36.1641L63.7284 34.72L64.1402 34.7859L63.881 36.4226L63.814 36.4118C63.4278 36.35 63.1147 36.2292 62.8748 36.0493C62.6376 35.8731 62.4729 35.6526 62.3806 35.3878C62.2878 35.1262 62.2661 34.8397 62.3154 34.5284Z" fill="#6F9CC1"/>
	<path d="M61.9318 37.3225L65.3164 38.0527L65.2249 38.4817L61.8402 37.7515L61.9318 37.3225Z" fill="#6F9CC1"/>
	<path d="M61.2956 39.9798C61.3681 39.7609 61.4825 39.58 61.6388 39.4371C61.7982 39.2952 61.9806 39.2021 62.1861 39.1579C62.3915 39.1136 62.6031 39.1279 62.8208 39.2008C63.0355 39.2726 63.2123 39.3866 63.3514 39.5428C63.4895 39.702 63.5795 39.8828 63.6215 40.0852C63.6655 40.2918 63.6523 40.5014 63.5818 40.7141C63.5145 40.9176 63.4093 41.0811 63.2662 41.2044C63.1221 41.3309 62.9545 41.4101 62.7634 41.442C62.5713 41.477 62.3725 41.4601 62.167 41.3914C62.1363 41.3811 62.1031 41.3683 62.0673 41.3529C62.0346 41.3385 61.9968 41.319 61.9539 41.2943L62.5679 39.4398L62.9129 39.5553L62.3724 41.1878L62.2895 40.9906C62.4367 41.0398 62.5696 41.0552 62.6881 41.0366C62.8098 41.0191 62.914 40.9718 63.0009 40.8947C63.0908 40.8186 63.1582 40.7128 63.2031 40.5771C63.2501 40.4353 63.2607 40.3001 63.2351 40.1717C63.2095 40.0433 63.1512 39.9313 63.0602 39.8357C62.9692 39.7402 62.8486 39.6673 62.6983 39.617C62.545 39.5657 62.3998 39.5514 62.2629 39.574C62.129 39.5977 62.011 39.6558 61.9088 39.7483C61.8097 39.8419 61.7356 39.9627 61.6866 40.1107C61.6458 40.234 61.63 40.3537 61.6392 40.4698C61.6475 40.589 61.6823 40.7 61.7436 40.8027L61.3834 40.9801C61.2954 40.8342 61.2448 40.6734 61.2314 40.4977C61.217 40.3251 61.2384 40.1524 61.2956 39.9798Z" fill="#6F9CC1"/>
	<path d="M60.0119 43.7136L61.2285 44.2856C61.3866 44.3599 61.5402 44.3711 61.6892 44.3192C61.8382 44.2673 61.9497 44.1619 62.0236 44.0029C62.0729 43.8969 62.0933 43.7917 62.0848 43.6873C62.0763 43.5828 62.042 43.4878 61.9819 43.4022C61.9218 43.3165 61.8391 43.2489 61.7337 43.1994L61.9019 43.0794C62.06 43.1537 62.1841 43.2551 62.2742 43.3835C62.3644 43.512 62.4151 43.656 62.4265 43.8156C62.4408 43.9766 62.411 44.1366 62.3371 44.2956C62.2632 44.4545 62.1586 44.5758 62.0234 44.6593C61.8868 44.7457 61.7377 44.794 61.576 44.8041C61.4173 44.8156 61.2662 44.7876 61.1227 44.7201L59.8271 44.111L60.0119 43.7136ZM60.702 42.23L62.7881 43.2108L62.6033 43.6082L60.5172 42.6274L60.702 42.23Z" fill="#6F9CC1"/>
	<path d="M58.6976 46.3629C58.7908 46.2145 58.9054 46.0989 59.0414 46.0161C59.1784 45.9379 59.3241 45.8977 59.4782 45.8956C59.6324 45.8935 59.7818 45.9326 59.9264 46.0128L60.5127 46.3848C60.6496 46.4833 60.749 46.602 60.8107 46.7411C60.8735 46.8847 60.8979 47.0346 60.8838 47.191C60.8708 47.3518 60.8185 47.505 60.7271 47.6506C60.615 47.8293 60.469 47.9614 60.2891 48.0471C60.1074 48.1355 59.9142 48.1723 59.7094 48.1577C59.5046 48.143 59.3065 48.0749 59.1152 47.9535C58.9238 47.8321 58.7775 47.6816 58.6762 47.5021C58.5749 47.3225 58.5248 47.1313 58.5261 46.9284C58.5283 46.73 58.5855 46.5415 58.6976 46.3629ZM58.5696 44.8407L61.333 46.5941L61.1001 46.9651L60.5876 46.6399L60.1601 46.2706L59.6405 46.0389L58.3367 45.2117L58.5696 44.8407ZM59.0849 46.5222C59.0073 46.6458 58.9679 46.7726 58.9666 46.9024C58.9654 47.0323 58.9967 47.1559 59.0606 47.2733C59.1272 47.3925 59.2261 47.4936 59.3573 47.5769C59.4858 47.6584 59.6178 47.7038 59.7535 47.713C59.8891 47.7222 60.0136 47.6974 60.1269 47.6387C60.243 47.5817 60.3389 47.4927 60.4148 47.3718C60.4925 47.2481 60.5319 47.1214 60.5332 46.9915C60.5372 46.8634 60.505 46.7411 60.4366 46.6248C60.3683 46.5084 60.2685 46.4086 60.1373 46.3253C60.0088 46.2438 59.8785 46.1957 59.7463 46.181C59.6151 46.1708 59.4915 46.1942 59.3754 46.2512C59.2577 46.3109 59.1608 46.4013 59.0849 46.5222Z" fill="#6F9CC1"/>
	<path d="M56.8532 49.2625C56.9942 49.0846 57.1628 48.9578 57.359 48.8823C57.5552 48.8068 57.7573 48.7838 57.9653 48.8133C58.1759 48.8448 58.3697 48.9315 58.5466 49.0732C58.7211 49.2129 58.8446 49.3804 58.9172 49.5756C58.9923 49.7729 59.0152 49.9761 58.9858 50.1852C58.9565 50.3944 58.8713 50.5879 58.7303 50.7658C58.5914 50.9412 58.4238 51.0666 58.2276 51.1422C58.0319 51.2223 57.83 51.2475 57.622 51.218C57.414 51.1885 57.2227 51.1039 57.0483 50.9642C56.8713 50.8225 56.744 50.652 56.6664 50.4527C56.5913 50.2554 56.5694 50.051 56.6007 49.8393C56.6301 49.6301 56.7142 49.4379 56.8532 49.2625ZM57.1831 49.5267C57.0925 49.6411 57.0385 49.764 57.0211 49.8955C57.0037 50.027 57.0204 50.1546 57.0711 50.2783C57.1244 50.404 57.2104 50.5145 57.3292 50.6096C57.4455 50.7028 57.5703 50.7591 57.7036 50.7786C57.8349 50.8007 57.9611 50.7875 58.0821 50.739C58.2037 50.6951 58.3098 50.616 58.4004 50.5016C58.491 50.3872 58.545 50.2643 58.5624 50.1328C58.5824 50.0034 58.567 49.8768 58.5162 49.7531C58.4655 49.6293 58.382 49.5209 58.2657 49.4278C58.1469 49.3326 58.0205 49.273 57.8867 49.2489C57.7554 49.2268 57.628 49.239 57.5044 49.2855C57.3809 49.3319 57.2738 49.4123 57.1831 49.5267Z" fill="#6F9CC1"/>
	<path d="M55.5827 51.0238L57.252 52.6188L56.9514 52.9368L55.2821 51.3417L55.5827 51.0238ZM56.2344 52.2517L56.4007 52.182C56.6139 52.3857 56.737 52.5975 56.77 52.8173C56.803 53.0371 56.7316 53.24 56.5557 53.4261C56.4755 53.5109 56.3879 53.5729 56.2929 53.6121C56.2002 53.6536 56.092 53.6713 55.9684 53.6652L55.9511 53.252C56.022 53.2524 56.0857 53.2393 56.1422 53.2126C56.1986 53.1859 56.2536 53.1442 56.307 53.0877C56.4184 52.9699 56.4722 52.8375 56.4685 52.6905C56.4647 52.5435 56.3867 52.3973 56.2344 52.2517Z" fill="#6F9CC1"/>
	<path d="M53.593 53.1384L55.7831 55.5766L55.4593 55.8706L53.2691 53.4324L53.593 53.1384ZM55.291 54.1778L55.5575 54.4745L54.3917 55.5329L54.1252 55.2363L55.291 54.1778Z" fill="#6F9CC1"/>
	<path d="M45.7052 58.703C45.9249 58.6163 46.1469 58.5759 46.3714 58.5816C46.594 58.5915 46.8064 58.642 47.0087 58.7333C47.208 58.8257 47.3866 58.9542 47.5446 59.1188C47.7026 59.2834 47.8258 59.4791 47.9144 59.706C48.003 59.9328 48.0444 60.1591 48.0387 60.3847C48.0342 60.6134 47.9887 60.8304 47.9021 61.0356C47.8156 61.2408 47.692 61.4222 47.5313 61.5798C47.3676 61.7387 47.1714 61.8632 46.9427 61.9534C46.693 62.0519 46.4439 62.0944 46.1955 62.0807C45.9471 62.0669 45.7168 61.9972 45.5045 61.8715L45.6828 61.4609C45.8388 61.5669 46.0127 61.6257 46.2047 61.6372C46.3979 61.6517 46.5908 61.621 46.7833 61.545C47.012 61.4548 47.195 61.3233 47.3324 61.1504C47.4668 60.9787 47.5482 60.7825 47.5766 60.5618C47.6021 60.3423 47.5687 60.1146 47.4766 59.8787C47.3833 59.6397 47.2516 59.4491 47.0815 59.3067C46.9114 59.1644 46.722 59.0751 46.5133 59.0387C46.3047 59.0023 46.0921 59.0269 45.8754 59.1123C45.6558 59.199 45.4828 59.3161 45.3564 59.4637C45.2269 59.6125 45.1505 59.7858 45.127 59.9836C45.1047 60.1844 45.1402 60.4043 45.2334 60.6433L44.9036 60.5587L46.2575 60.0245L46.4099 60.4148L44.8754 61.0202L44.8506 60.9566C44.7077 60.5906 44.6525 60.2581 44.6851 59.959C44.7158 59.6641 44.8213 59.4095 45.0016 59.1953C45.1788 58.9822 45.4134 58.8181 45.7052 58.703Z" fill="#6F9CC1"/>
	<path d="M43.181 59.7614L44.2744 63.0635L43.8604 63.202L42.767 59.8999L43.181 59.7614Z" fill="#6F9CC1"/>
	<path d="M40.5109 60.5796C40.7355 60.5321 40.9486 60.5401 41.1501 60.6037C41.3524 60.6704 41.5244 60.7818 41.6661 60.9378C41.8077 61.0937 41.9022 61.2846 41.9495 61.5104C41.9961 61.7329 41.9875 61.944 41.9236 62.1435C41.8565 62.3437 41.7467 62.513 41.594 62.6516C41.4389 62.7941 41.2522 62.8884 41.034 62.9346C40.8252 62.9788 40.6318 62.9699 40.4537 62.908C40.2724 62.8468 40.1198 62.7413 39.9959 62.5915C39.8689 62.4424 39.7831 62.2613 39.7385 62.0482C39.7318 62.0164 39.726 61.9811 39.7212 61.9423C39.7171 61.9067 39.7147 61.864 39.7142 61.8143L41.6166 61.4115L41.6916 61.7692L40.0169 62.1238L40.1445 61.9523C40.1764 62.105 40.2303 62.228 40.306 62.3216C40.3825 62.4183 40.4757 62.4849 40.5857 62.5214C40.6964 62.5611 40.8214 62.5662 40.9605 62.5367C41.106 62.5059 41.2274 62.447 41.3248 62.3599C41.4222 62.2729 41.4889 62.1658 41.5251 62.0386C41.5612 61.9114 41.5629 61.7699 41.5303 61.6141C41.497 61.4551 41.436 61.3219 41.3475 61.2144C41.2596 61.1102 41.1501 61.037 41.0191 60.995C40.8887 60.9562 40.7477 60.9529 40.5958 60.985C40.4693 61.0118 40.3586 61.0585 40.2635 61.1251C40.1653 61.1924 40.0876 61.2786 40.0303 61.3837L39.6962 61.1606C39.7771 61.0106 39.8896 60.8855 40.0338 60.7852C40.1747 60.6856 40.3338 60.6171 40.5109 60.5796Z" fill="#6F9CC1"/>
	<path d="M36.7264 61.3417L36.8557 62.6856C36.8725 62.8603 36.941 62.9989 37.0613 63.1014C37.1816 63.204 37.3286 63.2469 37.5023 63.23C37.6181 63.2187 37.7186 63.1828 37.8037 63.1223C37.8888 63.0618 37.9527 62.9838 37.9955 62.8882C38.0383 62.7926 38.054 62.6866 38.0428 62.5702L38.2312 62.6547C38.248 62.8294 38.2243 62.9884 38.1602 63.1317C38.096 63.2751 37.9985 63.3923 37.8676 63.4834C37.7371 63.5777 37.5849 63.6333 37.4112 63.6502C37.2375 63.6671 37.0805 63.6383 36.9402 63.5637C36.7966 63.4896 36.6794 63.3851 36.5885 63.2502C36.4979 63.1187 36.445 62.9736 36.4298 62.8151L36.2921 61.3839L36.7264 61.3417ZM38.3479 61.184L38.5696 63.4886L38.1352 63.5308L37.9136 61.2263L38.3479 61.184Z" fill="#6F9CC1"/>
	<path d="M33.6878 61.5507C33.8622 61.5562 34.0195 61.5968 34.1594 61.6727C34.296 61.7517 34.4043 61.8575 34.4843 61.99C34.5644 62.1225 34.6067 62.2718 34.6113 62.4377L34.5899 63.1344C34.575 63.303 34.5236 63.4493 34.4357 63.5734C34.3445 63.7006 34.2283 63.7978 34.0872 63.8649C33.9428 63.9352 33.7849 63.9677 33.6137 63.9624C33.4037 63.9559 33.2164 63.8964 33.0517 63.784C32.8837 63.6715 32.7541 63.5228 32.6628 63.3379C32.5714 63.153 32.5293 62.9469 32.5362 62.7195C32.5432 62.4921 32.598 62.289 32.7005 62.1102C32.803 61.9313 32.9415 61.7909 33.116 61.689C33.2872 61.5903 33.4778 61.5442 33.6878 61.5507ZM34.9276 60.6675L34.8267 63.9513L34.3906 63.9377L34.4093 63.3287L34.5089 62.771L34.4438 62.2033L34.4914 60.654L34.9276 60.6675ZM33.7478 61.9671C33.6024 61.9626 33.4737 61.9927 33.3618 62.0575C33.2498 62.1223 33.1598 62.2122 33.0916 62.3271C33.0233 62.4453 32.9867 62.5823 32.9819 62.7382C32.9772 62.8909 33.0054 63.0283 33.0663 63.1505C33.1272 63.2727 33.2116 63.3679 33.3194 63.4363C33.4272 63.5079 33.5521 63.546 33.6943 63.5504C33.8396 63.5549 33.9683 63.5247 34.0802 63.4599C34.1921 63.3984 34.2805 63.3085 34.3456 63.1902C34.4107 63.0719 34.4456 62.9349 34.4504 62.7789C34.4551 62.6263 34.4302 62.489 34.3758 62.367C34.318 62.2482 34.2352 62.1529 34.1274 62.0813C34.0165 62.0096 33.8899 61.9715 33.7478 61.9671Z" fill="#6F9CC1"/>
	<path d="M30.2366 61.4204C30.4606 61.4527 30.6546 61.5349 30.8186 61.6669C30.9826 61.7989 31.1045 61.9626 31.1844 62.1579C31.2638 62.3565 31.2875 62.5684 31.2553 62.7935C31.2237 63.0155 31.1424 63.2073 31.0116 63.369C30.8803 63.5339 30.7175 63.6565 30.5232 63.7368C30.3289 63.8171 30.1197 63.8411 29.8958 63.8088C29.675 63.7769 29.4826 63.695 29.3186 63.563C29.1509 63.4338 29.0271 63.2715 28.9473 63.0761C28.8674 62.8808 28.8433 62.6721 28.875 62.4501C28.9071 62.225 28.989 62.0283 29.1208 61.8602C29.2521 61.6953 29.4165 61.573 29.614 61.4931C29.8083 61.4128 30.0159 61.3886 30.2366 61.4204ZM30.1767 61.8402C30.0327 61.8194 29.8999 61.8348 29.7783 61.8861C29.6567 61.9375 29.5556 62.0165 29.4751 62.1231C29.3941 62.2329 29.3429 62.3634 29.3213 62.5145C29.3002 62.6625 29.3149 62.7992 29.3656 62.9247C29.4131 63.0497 29.4882 63.1525 29.591 63.233C29.6901 63.3162 29.8117 63.3682 29.9557 63.389C30.0996 63.4098 30.2324 63.3945 30.3541 63.3431C30.4752 63.2949 30.5761 63.2175 30.6566 63.111C30.7371 63.0044 30.7879 62.8771 30.809 62.7292C30.8306 62.578 30.8179 62.4383 30.7709 62.31C30.7234 62.185 30.6485 62.0806 30.5462 61.9969C30.4438 61.9132 30.3207 61.861 30.1767 61.8402Z" fill="#6F9CC1"/>
	<path d="M28.0879 61.2102L27.5619 63.4643L27.137 63.3641L27.663 61.11L28.0879 61.2102ZM27.3629 62.396L27.5068 62.505C27.4396 62.7929 27.32 63.0067 27.148 63.1464C26.976 63.286 26.7657 63.3265 26.5171 63.2679C26.4038 63.2412 26.3063 63.1965 26.2247 63.1338C26.1423 63.0744 26.0724 62.9895 26.0152 62.8792L26.3612 62.6554C26.3966 62.7171 26.44 62.7658 26.4915 62.8013C26.543 62.8368 26.6065 62.8634 26.682 62.8812C26.8393 62.9183 26.9802 62.8982 27.1045 62.8207C27.2288 62.7432 27.315 62.6016 27.3629 62.396Z" fill="#6F9CC1"/>
	<path d="M25.2832 60.556L24.298 63.6884L23.882 63.5561L24.8672 60.4237L25.2832 60.556ZM25.2496 62.5544L25.1298 62.9355L23.632 62.4593L23.7519 62.0782L25.2496 62.5544Z" fill="#6F9CC1"/>
	<path d="M16.5277 56.5166C16.7128 56.6638 16.8594 56.8362 16.9675 57.0341C17.0711 57.2324 17.1347 57.4424 17.1582 57.664C17.1791 57.8837 17.1586 58.1035 17.0968 58.3236C17.0349 58.5437 16.9288 58.7494 16.7785 58.9406C16.6281 59.1317 16.4546 59.2817 16.2578 59.3904C16.0591 59.5017 15.8497 59.5714 15.6298 59.5996C15.4099 59.6277 15.1917 59.6117 14.9753 59.5516C14.7564 59.4894 14.5506 59.3817 14.3579 59.2285C14.1475 59.0613 13.9856 58.8663 13.8722 58.6436C13.7589 58.421 13.7028 58.1858 13.7039 57.9382L14.1466 57.8861C14.134 58.075 14.1711 58.2557 14.2579 58.4283C14.3427 58.6034 14.4663 58.7554 14.6285 58.8844C14.8212 59.0376 15.0264 59.1303 15.2442 59.1625C15.4594 59.1928 15.669 59.1647 15.8729 59.0782C16.0743 58.9898 16.2532 58.8461 16.4096 58.6473C16.568 58.4459 16.6655 58.2355 16.7021 58.0161C16.7387 57.7966 16.7201 57.5871 16.6462 57.3876C16.5724 57.1881 16.4442 57.0157 16.2617 56.8706C16.0766 56.7235 15.8888 56.6322 15.6983 56.5968C15.5052 56.5593 15.3178 56.5802 15.136 56.6594C14.9523 56.7411 14.7812 56.8827 14.6228 57.0841L14.5293 56.755L15.6703 57.6619L15.4117 57.9908L14.1186 56.9629L14.1607 56.9094C14.4033 56.6009 14.6612 56.3855 14.9347 56.2632C15.2035 56.1414 15.4754 56.1048 15.7503 56.1534C16.0226 56.2001 16.2818 56.3211 16.5277 56.5166Z" fill="#6F9CC1"/>
	<path d="M14.3499 54.86L12.0674 57.4766L11.7393 57.1873L14.0219 54.5708L14.3499 54.86Z" fill="#6F9CC1"/>
	<path d="M12.3319 52.9864C12.487 53.1565 12.5886 53.345 12.6368 53.5518C12.6827 53.7608 12.6749 53.9663 12.6135 54.1683C12.5521 54.3703 12.4368 54.5493 12.2677 54.7051C12.1008 54.8588 11.9158 54.9588 11.7125 55.0051C11.5069 55.049 11.306 55.0402 11.1097 54.9786C10.9087 54.9169 10.7329 54.8034 10.5823 54.6381C10.4381 54.48 10.3472 54.3081 10.3095 54.1225C10.2696 53.9344 10.2823 53.7487 10.3474 53.5652C10.4104 53.3794 10.5217 53.2129 10.6814 53.0658C10.7052 53.0439 10.7325 53.0209 10.7633 52.997C10.7917 52.9752 10.827 52.9515 10.8693 52.9257L12.1828 54.3668L11.9147 54.6138L10.7585 53.3452L10.9702 53.3683C10.8558 53.4737 10.7779 53.583 10.7364 53.6961C10.6925 53.8115 10.6829 53.9261 10.7077 54.0399C10.7301 54.1559 10.7894 54.2666 10.8855 54.372C10.9859 54.4822 11.0982 54.5572 11.2223 54.5972C11.3464 54.6371 11.4721 54.6403 11.5993 54.6068C11.7266 54.5733 11.8486 54.5028 11.9654 54.3952C12.0846 54.2854 12.1676 54.1649 12.2144 54.0335C12.2589 53.9044 12.2658 53.7724 12.2351 53.6377C12.2019 53.5051 12.1329 53.3814 12.0281 53.2664C11.9408 53.1705 11.8444 53.0984 11.739 53.0501C11.6314 52.9994 11.518 52.976 11.3989 52.98L11.4198 52.5773C11.5893 52.5709 11.7537 52.6046 11.913 52.6783C12.07 52.7495 12.2097 52.8523 12.3319 52.9864Z" fill="#6F9CC1"/>
	<path d="M9.74894 50.0896L8.6629 50.8838C8.52175 50.9871 8.43776 51.1168 8.41092 51.2731C8.38409 51.4293 8.422 51.5784 8.52468 51.7203C8.59312 51.8149 8.67488 51.8837 8.76993 51.9267C8.86499 51.9697 8.96433 51.9854 9.06793 51.974C9.17154 51.9625 9.27039 51.9223 9.36449 51.8535L9.38768 52.0596C9.24654 52.1628 9.09826 52.223 8.94284 52.2402C8.78743 52.2575 8.63748 52.2325 8.49299 52.1654C8.34589 52.1002 8.221 51.9966 8.11833 51.8547C8.01566 51.7128 7.96063 51.5622 7.95325 51.4028C7.94397 51.2409 7.97401 51.0863 8.04339 50.9391C8.11015 50.7938 8.20757 50.6744 8.33565 50.5807L9.49226 49.7348L9.74894 50.0896ZM10.7072 51.414L8.84487 52.776L8.58819 52.4213L10.4505 51.0593L10.7072 51.414Z" fill="#6F9CC1"/>
	<path d="M8.09015 47.665C8.17446 47.8187 8.21982 47.9754 8.22625 48.1351C8.22829 48.2935 8.193 48.4412 8.12039 48.5779C8.04777 48.7147 7.94164 48.8274 7.80199 48.9159L7.19492 49.2526C7.04307 49.3257 6.89166 49.3559 6.74069 49.3431C6.58533 49.3291 6.44296 49.2781 6.31356 49.1903C6.17978 49.1012 6.07151 48.9813 5.98877 48.8305C5.88729 48.6455 5.84266 48.4532 5.85487 48.2534C5.86552 48.0508 5.92667 47.8629 6.03833 47.6896C6.14998 47.5164 6.30486 47.3748 6.50297 47.2649C6.70108 47.1551 6.9028 47.0988 7.10812 47.0963C7.31345 47.0938 7.50418 47.142 7.68031 47.241C7.85206 47.3387 7.98867 47.4801 8.09015 47.665ZM9.47795 48.2871L6.61667 49.8739L6.40591 49.4898L6.93656 49.1955L7.46457 48.9973L7.91721 48.6516L9.26719 47.9029L9.47795 48.2871ZM7.76444 47.9292C7.69418 47.8011 7.6028 47.7052 7.49028 47.6414C7.37777 47.5777 7.25496 47.5456 7.12185 47.5452C6.98591 47.5463 6.85002 47.5846 6.71417 47.6599C6.58115 47.7337 6.4779 47.8281 6.40441 47.9431C6.33092 48.058 6.29241 48.1796 6.28889 48.3077C6.28253 48.4374 6.31371 48.5649 6.3824 48.6901C6.45265 48.8181 6.54404 48.914 6.65655 48.9778C6.76623 49.0432 6.88826 49.0738 7.02264 49.0698C7.15702 49.0658 7.29213 49.0261 7.42798 48.9508C7.561 48.877 7.66581 48.7855 7.74243 48.6762C7.81465 48.5656 7.85394 48.4455 7.86029 48.3158C7.86508 48.1832 7.83313 48.0544 7.76444 47.9292Z" fill="#6F9CC1"/>
	<path d="M6.4239 44.5759C6.50969 44.7864 6.53756 44.9961 6.5075 45.2052C6.47744 45.4142 6.39889 45.6029 6.27186 45.7711C6.14183 45.9406 5.97214 46.0684 5.76278 46.1547C5.55642 46.2397 5.35076 46.2665 5.14582 46.235C4.93789 46.2048 4.75026 46.1258 4.58293 45.9981C4.4156 45.8704 4.28903 45.7013 4.20324 45.4908C4.11867 45.2833 4.09141 45.0751 4.12147 44.866C4.14731 44.6552 4.22375 44.4657 4.35079 44.2975C4.47783 44.1292 4.64453 44.0026 4.85089 43.9176C5.06025 43.8313 5.27039 43.8027 5.48131 43.8317C5.68924 43.8619 5.87749 43.9424 6.04604 44.0731C6.21338 44.2008 6.33933 44.3684 6.4239 44.5759ZM6.0336 44.7367C5.97845 44.6014 5.89802 44.494 5.79231 44.4147C5.68661 44.3353 5.56766 44.2878 5.43548 44.272C5.30031 44.2574 5.16244 44.2791 5.02187 44.337C4.8843 44.3937 4.77454 44.4758 4.69261 44.5833C4.60946 44.6878 4.55942 44.805 4.5425 44.9349C4.52137 45.063 4.53838 45.1947 4.59353 45.33C4.64869 45.4653 4.72912 45.5727 4.83482 45.652C4.93754 45.7326 5.05498 45.7808 5.18717 45.7966C5.31935 45.8124 5.45423 45.7919 5.5918 45.7352C5.73237 45.6773 5.84573 45.5955 5.93187 45.4898C6.01503 45.3853 6.06656 45.2674 6.08647 45.1363C6.10638 45.0052 6.08875 44.872 6.0336 44.7367Z" fill="#6F9CC1"/>
	<path d="M5.52493 42.6424L3.32655 43.3322L3.19657 42.9134L5.39494 42.2237L5.52493 42.6424ZM4.14071 42.6172L4.1204 42.7971C3.83962 42.8852 3.59571 42.8903 3.38865 42.8123C3.1816 42.7343 3.04004 42.5727 2.96397 42.3277C2.92931 42.216 2.91807 42.1089 2.93026 42.0063C2.93936 41.9048 2.97661 41.8012 3.04202 41.6955L3.40955 41.8815C3.37463 41.9435 3.35503 42.0058 3.35077 42.0684C3.3465 42.1311 3.35592 42.1996 3.37903 42.274C3.42717 42.4291 3.51602 42.5408 3.64556 42.6091C3.77511 42.6774 3.94016 42.6801 4.14071 42.6172Z" fill="#6F9CC1"/>
	<path d="M4.65829 39.8809L1.47411 40.6191L1.37606 40.1916L4.56025 39.4534L4.65829 39.8809ZM2.92909 40.867L2.5417 40.9569L2.18874 39.418L2.57614 39.3281L2.92909 40.867Z" fill="#6F9CC1"/>
	<path d="M3.66234 30.1137C3.62973 30.3486 3.5559 30.563 3.44088 30.7568C3.3231 30.947 3.17506 31.1083 2.99675 31.2408C2.8189 31.3701 2.6199 31.4635 2.39976 31.5212C2.17962 31.5789 1.94951 31.5909 1.70942 31.5573C1.46933 31.5236 1.25288 31.4489 1.06007 31.3333C0.864061 31.2172 0.69835 31.0709 0.56294 30.8944C0.427529 30.7179 0.330905 30.5206 0.273069 30.3025C0.215679 30.0812 0.203962 29.8482 0.237919 29.6036C0.275003 29.3365 0.360401 29.0975 0.494114 28.8866C0.627827 28.6756 0.801218 28.508 1.01429 28.3837L1.28284 28.7413C1.11444 28.826 0.97816 28.9496 0.874004 29.1121C0.766646 29.2742 0.698671 29.4583 0.670076 29.6642C0.636119 29.9088 0.66038 30.1337 0.742859 30.3389C0.825784 30.5408 0.95591 30.7084 1.13323 30.8415C1.31101 30.9715 1.52474 31.0539 1.77443 31.089C2.02732 31.1245 2.25717 31.1026 2.46399 31.0233C2.6708 30.9441 2.84114 30.822 2.975 30.657C3.10886 30.4921 3.19187 30.2937 3.22404 30.062C3.25666 29.8271 3.23999 29.618 3.17404 29.4349C3.10853 29.2485 2.99583 29.0965 2.83592 28.9789C2.67281 28.8609 2.46482 28.7841 2.21192 28.7486L2.447 28.5011L2.24594 29.9494L1.83299 29.8914L2.06085 28.25L2.12808 28.2595C2.51542 28.3138 2.83073 28.4286 3.07401 28.6038C3.31454 28.7754 3.48345 28.9927 3.58074 29.2557C3.67848 29.5155 3.70568 29.8015 3.66234 30.1137Z" fill="#6F9CC1"/>
	<path d="M3.97752 27.4099L0.577148 26.7578L0.658902 26.3269L4.05928 26.979L3.97752 27.4099Z" fill="#6F9CC1"/>
	<path d="M4.57338 24.6475C4.50502 24.8678 4.39403 25.0508 4.24041 25.1967C4.08371 25.3415 3.90308 25.438 3.69852 25.4862C3.49396 25.5344 3.28214 25.5241 3.06308 25.4553C2.8471 25.3876 2.66812 25.277 2.52615 25.1235C2.38514 24.9669 2.29174 24.7878 2.24597 24.5862C2.19807 24.3806 2.20734 24.1707 2.27378 23.9567C2.33733 23.752 2.43945 23.5866 2.58016 23.4605C2.72183 23.3313 2.88791 23.249 3.0784 23.2134C3.26985 23.1748 3.46894 23.1879 3.67566 23.2527C3.70652 23.2624 3.73997 23.2746 3.77604 23.2893C3.80901 23.3031 3.8472 23.3219 3.89059 23.3457L3.31143 25.2116L2.96431 25.1027L3.47415 23.4601L3.56071 23.6558C3.41261 23.6093 3.27946 23.5965 3.16127 23.6173C3.04 23.6371 2.93667 23.6864 2.85128 23.7651C2.76281 23.8429 2.69739 23.95 2.65502 24.0865C2.61073 24.2292 2.60259 24.3645 2.6306 24.4925C2.65861 24.6204 2.719 24.7312 2.81178 24.825C2.90457 24.9188 3.02655 24.9894 3.17774 25.0369C3.33201 25.0853 3.4774 25.0968 3.6139 25.0716C3.74732 25.0454 3.86424 24.985 3.96466 24.8906C4.06199 24.7952 4.13377 24.673 4.17999 24.5241C4.2185 24.4 4.23205 24.28 4.22063 24.1641C4.21017 24.0451 4.1733 23.9348 4.11001 23.8333L4.46685 23.649C4.55753 23.7932 4.61119 23.953 4.62784 24.1285C4.64546 24.3008 4.6273 24.4738 4.57338 24.6475Z" fill="#6F9CC1"/>
	<path d="M5.7491 20.9722L4.52015 20.4277C4.36044 20.357 4.20666 20.3492 4.05882 20.4044C3.91099 20.4597 3.80188 20.5676 3.73149 20.7282C3.68457 20.8352 3.66653 20.9408 3.67735 21.0451C3.68818 21.1493 3.72458 21.2435 3.78654 21.3278C3.8485 21.4121 3.93272 21.4778 4.0392 21.525L3.8737 21.6487C3.71398 21.578 3.58765 21.4794 3.4947 21.353C3.40176 21.2266 3.34782 21.0837 3.33288 20.9244C3.31498 20.7638 3.34122 20.6032 3.41161 20.4426C3.48199 20.282 3.58383 20.1585 3.71713 20.0719C3.85173 19.9824 3.99974 19.9308 4.16116 19.9171C4.31963 19.9021 4.47132 19.9267 4.61625 19.9909L5.92505 20.5707L5.7491 20.9722ZM5.09219 22.4709L2.9848 21.5372L3.16075 21.1358L5.26814 22.0695L5.09219 22.4709Z" fill="#6F9CC1"/>
	<path d="M7.00757 18.2838C6.9177 18.4342 6.80566 18.5523 6.67147 18.6381C6.53618 18.7194 6.39148 18.7627 6.23738 18.7682C6.08327 18.7737 5.93307 18.738 5.78677 18.661L5.19246 18.3021C5.05337 18.2067 4.95144 18.0902 4.88666 17.9525C4.82077 17.8103 4.79313 17.661 4.80374 17.5044C4.81325 17.3433 4.86211 17.189 4.95032 17.0413C5.05851 16.8603 5.20159 16.7249 5.37957 16.6353C5.55922 16.5429 5.75159 16.5017 5.95668 16.5119C6.16177 16.522 6.36129 16.5857 6.55524 16.7028C6.74919 16.8199 6.89878 16.9671 7.00401 17.1444C7.10924 17.3217 7.16346 17.5117 7.16668 17.7146C7.1688 17.913 7.11576 18.1027 7.00757 18.2838ZM7.16892 19.8028L4.36773 18.111L4.59243 17.735L5.11193 18.0487L5.54744 18.4084L6.07199 18.6285L7.39361 19.4267L7.16892 19.8028ZM6.61686 18.1331C6.69176 18.0078 6.72841 17.8802 6.72681 17.7503C6.72522 17.6205 6.69119 17.4976 6.62473 17.3816C6.55551 17.264 6.45439 17.165 6.3214 17.0847C6.19118 17.006 6.05816 16.9636 5.92236 16.9574C5.78655 16.9512 5.66265 16.9787 5.55065 17.04C5.43587 17.0996 5.34187 17.1906 5.26864 17.3132C5.19374 17.4385 5.15709 17.5661 5.15868 17.696C5.15751 17.8242 5.19236 17.9457 5.26326 18.0605C5.33415 18.1754 5.43609 18.2729 5.56909 18.3533C5.69931 18.4319 5.83066 18.4771 5.96313 18.4889C6.0945 18.4962 6.21758 18.4701 6.33235 18.4105C6.44879 18.3481 6.54363 18.2557 6.61686 18.1331Z" fill="#6F9CC1"/>
	<path d="M8.74033 15.4043C8.60326 15.5852 8.43747 15.7156 8.24295 15.7954C8.04844 15.8753 7.84687 15.9027 7.63825 15.8778C7.42705 15.8509 7.23145 15.7685 7.05144 15.6307C6.874 15.4949 6.74688 15.3302 6.67006 15.1366C6.59067 14.941 6.56337 14.7384 6.58817 14.5286C6.61296 14.3189 6.69389 14.1235 6.83096 13.9425C6.96607 13.7642 7.13088 13.635 7.3254 13.5552C7.5193 13.4709 7.72056 13.4411 7.92919 13.4661C8.13781 13.491 8.33084 13.5714 8.50828 13.7072C8.68828 13.845 8.81927 14.0127 8.90123 14.2102C8.98062 14.4058 9.00694 14.6097 8.98019 14.8221C8.95539 15.0318 8.87544 15.2259 8.74033 15.4043ZM8.40474 15.1473C8.49286 15.031 8.54418 14.9069 8.55871 14.7751C8.57324 14.6433 8.5538 14.5161 8.50039 14.3935C8.44441 14.2689 8.35598 14.1604 8.23512 14.0679C8.11683 13.9773 7.99083 13.9237 7.85714 13.9072C7.7254 13.888 7.59955 13.904 7.47958 13.9551C7.35901 14.0017 7.25466 14.0831 7.16654 14.1994C7.07843 14.3158 7.02711 14.4399 7.01257 14.5717C6.99547 14.7016 7.01363 14.8278 7.06704 14.9504C7.12045 15.0729 7.20631 15.1795 7.3246 15.2701C7.44546 15.3626 7.57305 15.4194 7.70735 15.4406C7.83909 15.4597 7.96623 15.4447 8.08877 15.3956C8.2113 15.3464 8.31663 15.2637 8.40474 15.1473Z" fill="#6F9CC1"/>
	<path d="M9.9669 13.6094L8.2634 12.0514L8.55703 11.7269L10.2605 13.2849L9.9669 13.6094ZM9.28864 12.396L9.12392 12.4694C8.90635 12.2704 8.77869 12.0614 8.74093 11.8423C8.70317 11.6233 8.77021 11.4188 8.94204 11.2289C9.02034 11.1424 9.10657 11.0785 9.20072 11.0372C9.29249 10.9937 9.40023 10.9737 9.52394 10.977L9.55022 11.3898C9.47934 11.3909 9.41595 11.4054 9.36007 11.4333C9.30418 11.4613 9.25014 11.5041 9.19794 11.5618C9.08918 11.682 9.03826 11.8155 9.04517 11.9624C9.05208 12.1093 9.13323 12.2539 9.28864 12.396Z" fill="#6F9CC1"/>
	<path d="M11.9481 11.4064L9.70556 9.01683L10.0229 8.71578L12.2655 11.1054L11.9481 11.4064ZM10.2279 10.4045L9.95508 10.1137L11.0976 9.02994L11.3705 9.32066L10.2279 10.4045Z" fill="#6F9CC1"/>
	<path d="M19.5947 5.70591C19.377 5.7975 19.156 5.84298 18.9314 5.84235C18.7087 5.83746 18.4951 5.79169 18.2909 5.70503C18.0896 5.61712 17.9081 5.49268 17.7465 5.33172C17.5849 5.17075 17.4573 4.97786 17.3637 4.75304C17.2701 4.52823 17.2236 4.30296 17.2242 4.07724C17.2236 3.84852 17.2643 3.63061 17.3463 3.4235C17.4282 3.2164 17.5478 3.03223 17.7049 2.87099C17.865 2.7085 18.0583 2.57958 18.2849 2.48422C18.5324 2.38009 18.7805 2.33206 19.0291 2.34016C19.2777 2.34825 19.5096 2.41274 19.7246 2.53362L19.5556 2.94822C19.3973 2.84574 19.222 2.79091 19.0298 2.78372C18.8364 2.77354 18.6442 2.8086 18.4534 2.8889C18.2268 2.98425 18.0468 3.1199 17.9133 3.29585C17.7828 3.47053 17.7058 3.66851 17.6823 3.88977C17.6618 4.10977 17.7002 4.33668 17.7975 4.57049C17.8961 4.8073 18.032 4.99492 18.2053 5.13337C18.3786 5.27182 18.5699 5.35687 18.7793 5.38853C18.9887 5.42018 19.2007 5.39084 19.4154 5.30051C19.633 5.20891 19.8034 5.0879 19.9265 4.93747C20.0526 4.78579 20.1251 4.61082 20.1442 4.41256C20.162 4.21131 20.1216 3.99228 20.023 3.75547L20.3547 3.83255L19.013 4.39716L18.852 4.01047L20.3726 3.37058L20.3988 3.43353C20.5498 3.79624 20.6124 4.12747 20.5865 4.42722C20.5624 4.72272 20.4626 4.97959 20.2872 5.19785C20.1147 5.41485 19.8839 5.58421 19.5947 5.70591Z" fill="#6F9CC1"/>
	<path d="M22.1829 4.55184L21.0156 1.27539L21.4264 1.12746L22.5937 4.40391L22.1829 4.55184Z" fill="#6F9CC1"/>
	<path d="M24.8364 3.66724C24.613 3.71993 24.3998 3.71681 24.1968 3.65788C23.9931 3.59579 23.8186 3.4884 23.6734 3.33573C23.5282 3.18306 23.4294 2.99441 23.377 2.76979C23.3254 2.54834 23.3292 2.33715 23.3886 2.13624C23.4511 1.93458 23.557 1.76272 23.7065 1.62066C23.8583 1.4747 24.0428 1.37611 24.2599 1.3249C24.4676 1.27591 24.6612 1.28032 24.8407 1.33812C25.0233 1.39517 25.1783 1.49715 25.3055 1.64404C25.4359 1.79019 25.5258 1.96925 25.5753 2.18121C25.5827 2.21285 25.5892 2.24802 25.5949 2.28673C25.5999 2.32227 25.6032 2.36488 25.6048 2.41456L23.7121 2.861L23.629 2.50509L25.2952 2.11209L25.1716 2.28645C25.1361 2.13459 25.0795 2.01277 25.0016 1.92099C24.923 1.82604 24.8283 1.7616 24.7175 1.72766C24.6059 1.69056 24.4809 1.68834 24.3424 1.721C24.1977 1.75514 24.0776 1.81684 23.9822 1.90609C23.8869 1.99534 23.8226 2.10396 23.7894 2.23195C23.7561 2.35995 23.7576 2.50145 23.7938 2.65647C23.8307 2.81466 23.8947 2.94643 23.9857 3.05181C24.0759 3.15402 24.187 3.22461 24.3189 3.26359C24.4501 3.2994 24.5912 3.29949 24.7423 3.26387C24.8682 3.23418 24.9778 3.18494 25.0714 3.11616C25.168 3.04663 25.2438 2.95867 25.2986 2.85228L25.6377 3.06769C25.5603 3.21947 25.4506 3.34714 25.3088 3.45068C25.1701 3.55349 25.0126 3.62567 24.8364 3.66724Z" fill="#6F9CC1"/>
	<path d="M28.5061 2.8268L28.346 1.48623C28.3252 1.31201 28.2535 1.17502 28.1309 1.07526C28.0083 0.975507 27.8604 0.936087 27.6871 0.957002C27.5715 0.970946 27.4719 1.00915 27.3882 1.07162C27.3046 1.13409 27.2424 1.21359 27.2019 1.31012C27.1613 1.40666 27.148 1.513 27.1618 1.62915L26.9716 1.54902C26.9508 1.37479 26.9708 1.21528 27.0316 1.07047C27.0925 0.925668 27.1873 0.806223 27.316 0.712135C27.4444 0.61482 27.5952 0.555705 27.7685 0.53479C27.9418 0.513875 28.0994 0.539034 28.2414 0.610267C28.3866 0.681112 28.5062 0.782868 28.6001 0.915534C28.6937 1.04497 28.75 1.18874 28.7688 1.34683L28.9393 2.77451L28.5061 2.8268ZM26.8887 3.02201L26.6142 0.7232L27.0474 0.670913L27.3219 2.96972L26.8887 3.02201Z" fill="#6F9CC1"/>
	<path d="M31.5207 2.53346C31.3461 2.53211 31.188 2.49513 31.0464 2.42254C30.908 2.34672 30.7972 2.2435 30.7142 2.11287C30.6312 1.98224 30.5854 1.83402 30.577 1.66823L30.5824 0.971218C30.5934 0.802321 30.6414 0.654835 30.7264 0.528758C30.8146 0.399457 30.9285 0.299601 31.0681 0.229192C31.2108 0.155558 31.3679 0.119406 31.5392 0.120736C31.7493 0.122367 31.9379 0.177451 32.1052 0.285987C32.2757 0.394549 32.4087 0.540191 32.5042 0.722914C32.5998 0.905636 32.6467 1.11073 32.645 1.33819C32.6432 1.56565 32.5932 1.76999 32.4948 1.95121C32.3965 2.13243 32.2612 2.27599 32.0891 2.38189C31.9202 2.48457 31.7307 2.53509 31.5207 2.53346ZM30.3015 3.44527L30.3268 0.16007L30.7631 0.163457L30.7584 0.772731L30.6717 1.33262L30.7498 1.89867L30.7379 3.44866L30.3015 3.44527ZM31.4511 2.11859C31.5966 2.11972 31.7245 2.08659 31.8349 2.0192C31.9453 1.95182 32.0333 1.85989 32.0988 1.74341C32.1644 1.62368 32.1978 1.48583 32.199 1.32985C32.2002 1.17713 32.1689 1.0404 32.1052 0.919669C32.0414 0.798938 31.9549 0.70565 31.8455 0.639808C31.7361 0.570717 31.6103 0.535619 31.4681 0.534516C31.3227 0.533387 31.1948 0.566515 31.0843 0.6339C30.9739 0.698036 30.8876 0.789981 30.8253 0.909735C30.7629 1.02949 30.7312 1.16735 30.73 1.32333C30.7288 1.47605 30.7568 1.61275 30.8141 1.73344C30.8746 1.85089 30.9595 1.94417 31.0689 2.01326C31.1815 2.08238 31.3089 2.11749 31.4511 2.11859Z" fill="#6F9CC1"/>
	<path d="M34.9947 2.57093C34.77 2.54382 34.5742 2.46618 34.4072 2.33802C34.2402 2.20986 34.1146 2.04905 34.0302 1.85559C33.9463 1.6589 33.9178 1.44764 33.9448 1.22179C33.9713 0.999168 34.0482 0.805523 34.1753 0.640852C34.3027 0.472956 34.4627 0.346617 34.6551 0.261835C34.8475 0.177054 35.0561 0.148219 35.2807 0.175331C35.5021 0.202056 35.6964 0.279499 35.8634 0.407659C36.034 0.532981 36.1614 0.692371 36.2457 0.885831C36.3301 1.07929 36.3589 1.28733 36.3324 1.50995C36.3054 1.7358 36.228 1.93428 36.1001 2.10541C35.9726 2.2733 35.8111 2.39945 35.6155 2.48384C35.423 2.56862 35.2161 2.59765 34.9947 2.57093ZM35.0449 2.14988C35.1894 2.16731 35.3218 2.14893 35.4422 2.09473C35.5626 2.04053 35.6618 1.95923 35.7399 1.85083C35.8183 1.7392 35.8666 1.60756 35.8847 1.45592C35.9024 1.30751 35.8845 1.17116 35.831 1.04687C35.7807 0.922978 35.7032 0.821987 35.5986 0.743904C35.4976 0.66298 35.3749 0.613804 35.2304 0.596375C35.086 0.578946 34.9536 0.597331 34.8332 0.651529C34.7132 0.702501 34.6141 0.782189 34.5361 0.890593C34.458 0.998996 34.4102 1.12741 34.3924 1.27582C34.3743 1.42746 34.3902 1.56684 34.4402 1.69396C34.4905 1.81786 34.5678 1.92046 34.672 2.00177C34.7762 2.08308 34.9005 2.13245 35.0449 2.14988Z" fill="#6F9CC1"/>
	<path d="M37.1687 2.72444L37.6433 0.45883L38.0703 0.549235L37.5957 2.81485L37.1687 2.72444ZM37.8665 1.52226L37.7202 1.41656C37.7808 1.12719 37.8955 0.910722 38.0643 0.767139C38.2331 0.623555 38.4424 0.578216 38.6923 0.63112C38.8062 0.655228 38.9046 0.697661 38.9877 0.758419C39.0714 0.815997 39.1432 0.899264 39.2029 1.00822L38.8621 1.23991C38.8253 1.17898 38.7807 1.13137 38.7285 1.09705C38.6762 1.06274 38.6121 1.03755 38.5362 1.02148C38.3781 0.987994 38.2377 1.01141 38.1152 1.09174C37.9927 1.17206 37.9098 1.31557 37.8665 1.52226Z" fill="#6F9CC1"/>
	<path d="M40.0141 3.31365L40.9284 0.159569L41.3473 0.282314L40.433 3.4364L40.0141 3.31365ZM40.0026 1.31498L40.1138 0.93125L41.6219 1.37313L41.5107 1.75686L40.0026 1.31498Z" fill="#6F9CC1"/>
	<path d="M48.8879 7.13426C48.6996 6.99124 48.5493 6.82204 48.4369 6.62665C48.329 6.43063 48.2609 6.22209 48.2326 6.00101C48.2069 5.7819 48.2225 5.56163 48.2796 5.34022C48.3366 5.11881 48.4382 4.91088 48.5844 4.71644C48.7305 4.522 48.9008 4.36827 49.0951 4.25525C49.2914 4.13963 49.4992 4.06533 49.7185 4.03233C49.9377 3.99934 50.1562 4.01054 50.3738 4.06593C50.5941 4.12328 50.8022 4.2264 50.9981 4.3753C51.2122 4.53791 51.3783 4.72927 51.4964 4.94938C51.6146 5.16948 51.6758 5.40335 51.68 5.65098L51.2386 5.71273C51.2471 5.52364 51.206 5.34379 51.1155 5.17318C51.0269 4.99998 50.9001 4.85068 50.7351 4.72529C50.5391 4.57639 50.3319 4.48822 50.1135 4.46077C49.8977 4.43529 49.6888 4.46799 49.4867 4.55889C49.2873 4.65175 49.1116 4.79929 48.9596 5.0015C48.8056 5.20631 48.7127 5.41882 48.6809 5.63902C48.6491 5.85923 48.6722 6.06826 48.7504 6.26612C48.8285 6.46398 48.9605 6.63344 49.1461 6.77451C49.3344 6.91753 49.5241 7.00466 49.7153 7.03591C49.9091 7.06911 50.0961 7.04413 50.2761 6.96095C50.458 6.87517 50.626 6.72988 50.7799 6.52507L50.8806 6.85202L49.7202 5.97039L49.9715 5.63595L51.2867 6.63514L51.2457 6.68958C51.01 7.00328 50.7567 7.2243 50.486 7.35264C50.2199 7.48035 49.9489 7.5229 49.673 7.4803C49.3997 7.43965 49.138 7.32431 48.8879 7.13426Z" fill="#6F9CC1"/>
	<path d="M51.143 8.77342L53.3682 6.10742L53.7024 6.38941L51.4772 9.05541L51.143 8.77342Z" fill="#6F9CC1"/>
	<path d="M53.2608 10.6525C53.1028 10.4853 52.9977 10.2987 52.9458 10.0928C52.8962 9.88468 52.9002 9.67906 52.958 9.47597C53.0157 9.27288 53.1277 9.09186 53.2941 8.93292C53.4581 8.77622 53.6413 8.67287 53.8438 8.62289C54.0484 8.57525 54.2495 8.5804 54.4469 8.63831C54.6489 8.69635 54.8268 8.80663 54.9804 8.96915C55.1274 9.12461 55.2214 9.29481 55.2624 9.47974C55.3057 9.66703 55.2964 9.85297 55.2346 10.0376C55.175 10.2245 55.0667 10.393 54.9097 10.543C54.8863 10.5654 54.8594 10.5888 54.8291 10.6133C54.8011 10.6356 54.7661 10.66 54.7243 10.6865L53.385 9.26968L53.6486 9.01784L54.8276 10.2651L54.6154 10.2458C54.7279 10.1384 54.8039 10.0277 54.8433 9.91379C54.8851 9.79763 54.8926 9.6829 54.8658 9.56958C54.8412 9.45403 54.78 9.34443 54.682 9.24079C54.5796 9.13244 54.466 9.05943 54.3412 9.02176C54.2164 8.98409 54.0907 8.98317 53.964 9.01901C53.8374 9.05485 53.7167 9.12761 53.6019 9.2373C53.4847 9.34923 53.4039 9.47129 53.3594 9.60346C53.3173 9.7334 53.3128 9.86545 53.346 9.99961C53.3815 10.1315 53.4527 10.254 53.5596 10.3671C53.6486 10.4613 53.7463 10.5316 53.8526 10.578C53.9611 10.6268 54.0749 10.6481 54.1939 10.6419L54.1803 11.0449C54.0109 11.0544 53.8459 11.0238 53.6853 10.953C53.527 10.8846 53.3855 10.7844 53.2608 10.6525Z" fill="#6F9CC1"/>
	<path d="M55.8212 13.3954L56.8896 12.5774C57.0285 12.4711 57.1097 12.3395 57.1331 12.1827C57.1565 12.0259 57.1154 11.8777 57.0096 11.7381C56.9391 11.645 56.8559 11.5781 56.7599 11.5372C56.664 11.4963 56.5643 11.4827 56.461 11.4965C56.3576 11.5102 56.2597 11.5525 56.1671 11.6234L56.1394 11.4179C56.2783 11.3116 56.4252 11.2481 56.5802 11.2275C56.7352 11.2069 56.8857 11.2285 57.0316 11.2924C57.1801 11.3544 57.3072 11.4552 57.4129 11.5948C57.5187 11.7344 57.577 11.8838 57.5878 12.0429C57.6006 12.2046 57.574 12.3599 57.5078 12.5085C57.4442 12.6552 57.3494 12.7768 57.2234 12.8733L56.0855 13.7444L55.8212 13.3954ZM54.8343 12.0923L56.6665 10.6897L56.9309 11.0387L55.0986 12.4414L54.8343 12.0923Z" fill="#6F9CC1"/>
	<path d="M57.5443 15.7842C57.4566 15.6324 57.4078 15.4768 57.3979 15.3172C57.3924 15.1589 57.4244 15.0105 57.494 14.8722C57.5636 14.7338 57.6672 14.6188 57.8049 14.5271L58.4044 14.177C58.5546 14.1006 58.7053 14.0671 58.8565 14.0765C59.0121 14.0871 59.1556 14.1348 59.2869 14.2197C59.4226 14.3058 59.5335 14.4234 59.6195 14.5723C59.7251 14.7549 59.7739 14.9462 59.7661 15.1462C59.7599 15.349 59.7029 15.5382 59.5951 15.7139C59.4873 15.8896 59.3355 16.0346 59.1399 16.1489C58.9443 16.2631 58.7438 16.3238 58.5386 16.3309C58.3334 16.338 58.1416 16.294 57.9634 16.1989C57.7895 16.1051 57.6498 15.9668 57.5443 15.7842ZM56.1432 15.1931L58.9688 13.543L59.188 13.9224L58.6639 14.2284L58.1404 14.4383L57.6955 14.7939L56.3623 15.5725L56.1432 15.1931ZM57.8641 15.5128C57.9372 15.6393 58.0307 15.7331 58.1445 15.7944C58.2584 15.8557 58.3819 15.885 58.515 15.8824C58.6509 15.8783 58.7859 15.837 58.9201 15.7586C59.0514 15.6819 59.1526 15.5853 59.2235 15.4687C59.2945 15.3521 59.3303 15.2297 59.331 15.1015C59.3345 14.9717 59.3005 14.845 59.2291 14.7214C59.156 14.5949 59.0626 14.5011 58.9487 14.4398C58.8376 14.3769 58.7149 14.349 58.5806 14.356C58.4464 14.363 58.3122 14.4056 58.178 14.484C58.0467 14.5607 57.9439 14.6545 57.8697 14.7655C57.7999 14.8776 57.7633 14.9986 57.7598 15.1284C57.7579 15.2611 57.7927 15.3892 57.8641 15.5128Z" fill="#6F9CC1"/>
	<path d="M59.3074 18.8774C59.2169 18.6689 59.1844 18.4598 59.2098 18.2502C59.2352 18.0405 59.3095 17.8501 59.4328 17.6791C59.559 17.5067 59.7258 17.3751 59.9332 17.2841C60.1376 17.1945 60.3426 17.1631 60.5482 17.1899C60.7567 17.2154 60.9461 17.2901 61.1162 17.4141C61.2864 17.538 61.4167 17.7042 61.5071 17.9127C61.5963 18.1182 61.6282 18.3258 61.6028 18.5355C61.5817 18.7468 61.5095 18.938 61.3862 19.1091C61.2629 19.2801 61.0991 19.4105 60.8947 19.5001C60.6873 19.5911 60.4779 19.6244 60.2663 19.6002C60.0578 19.5747 59.8678 19.4985 59.6964 19.3716C59.5262 19.2477 59.3966 19.0829 59.3074 18.8774ZM59.694 18.7079C59.7522 18.8419 59.835 18.9474 59.9424 19.0244C60.0499 19.1013 60.1698 19.1462 60.3023 19.159C60.4378 19.1705 60.5752 19.1457 60.7144 19.0846C60.8507 19.0249 60.9586 18.9403 61.0381 18.831C61.1189 18.7246 61.1663 18.6064 61.1803 18.4761C61.1986 18.3476 61.1787 18.2163 61.1205 18.0822C61.0624 17.9482 60.9795 17.8427 60.8721 17.7658C60.7676 17.6875 60.6491 17.642 60.5166 17.6292C60.3841 17.6164 60.2497 17.6399 60.1135 17.6996C59.9742 17.7607 59.8627 17.8451 59.7789 17.9527C59.6981 18.059 59.6492 18.178 59.6323 18.3095C59.6153 18.441 59.6359 18.5738 59.694 18.7079Z" fill="#6F9CC1"/>
	<path d="M60.2386 20.761L62.4209 20.0214L62.5602 20.4371L60.3779 21.1767L60.2386 20.761ZM61.623 20.7548L61.6393 20.5744C61.918 20.4799 62.1617 20.4693 62.3705 20.5426C62.5792 20.6159 62.7244 20.7741 62.806 21.0174C62.8431 21.1283 62.8568 21.2351 62.8469 21.3379C62.8401 21.4396 62.8052 21.5441 62.7422 21.6512L62.3705 21.4736C62.4041 21.4108 62.4222 21.3481 62.4251 21.2854C62.428 21.2227 62.417 21.1544 62.3922 21.0805C62.3406 20.9265 62.2493 20.8169 62.1182 20.7515C61.9872 20.6862 61.8221 20.6873 61.623 20.7548Z" fill="#6F9CC1"/>
	<path d="M61.1707 23.5073L64.3373 22.6962L64.445 23.1213L61.2784 23.9324L61.1707 23.5073ZM62.8771 22.4817L63.2623 22.383L63.6501 23.9134L63.2649 24.0121L62.8771 22.4817Z" fill="#6F9CC1"/>
</svg>