<svg width="16" height="12" viewBox="0 0 16 12" fill="none" xmlns="http://www.w3.org/2000/svg"><g clip-path="url(#a)" fill-rule="evenodd" clip-rule="evenodd"><path d="M0 0h16v12H0V0Z" fill="#E30A17"/><path d="M10.175 6.188c0 1.655-1.365 2.997-3.05 2.997-1.685 0-3.05-1.342-3.05-3 0-1.657 1.365-2.995 3.05-2.995 1.685 0 3.05 1.343 3.05 2.998Z" fill="#fff"/><path d="M10.325 6.188c0 1.325-1.09 2.397-2.438 2.397-1.347 0-2.44-1.075-2.44-2.4S6.54 3.79 7.887 3.79c1.348 0 2.44 1.073 2.44 2.398h-.002Z" fill="#E30A17"/><path d="m10.768 4.788-.026 1.107-1.032.28 1.02.363-.025 1.017.662-.795 1.005.35-.58-.852.708-.848-1.088.3-.645-.925v.003Z" fill="#fff"/></g><defs><clipPath id="a"><path fill="#fff" d="M0 0h16v12H0z"/></clipPath></defs></svg>