<svg width="48" height="48" viewBox="0 0 48 48" fill="none" xmlns="http://www.w3.org/2000/svg"><mask id="a" style="mask-type:luminance" maskUnits="userSpaceOnUse" x="0" y="0" width="48" height="48"><path d="M0 0h48v48H0V0Z" fill="#fff"/></mask><g mask="url(#a)" stroke="#6F9CC1" stroke-width="1.4" stroke-miterlimit="10" stroke-linecap="round" stroke-linejoin="round"><path d="M37.957 38.376H10.043a3.792 3.792 0 0 1-3.792-3.793V7.618A6.915 6.915 0 0 1 13.166.703h21.668a6.915 6.915 0 0 1 6.915 6.915v26.965a3.792 3.792 0 0 1-3.792 3.793Z"/><path d="M19.16 7.165V4.86c0-.356.288-.645.645-.645h8.39c.357 0 .646.289.646.645v2.305a.645.645 0 0 1-.646.646h-8.39a.645.645 0 0 1-.646-.646ZM9.939 21.68v-9.467c0-.866.702-1.568 1.568-1.568h24.986c.866 0 1.568.702 1.568 1.568v9.466c0 .866-.702 1.568-1.568 1.568H11.507a1.567 1.567 0 0 1-1.568-1.568Zm6.139 9.235a3.004 3.004 0 1 1-6.008 0 3.004 3.004 0 0 1 6.008 0Zm21.722 0a3.004 3.004 0 1 1-6.009 0 3.004 3.004 0 0 1 6.009 0Z"/><path d="M31.791 30.915a3.004 3.004 0 0 1 3.004-3.004h-21.72a3.004 3.004 0 0 1 0 6.008h21.72a3.004 3.004 0 0 1-3.004-3.004Zm-21.748 7.461a4.06 4.06 0 0 1-.35-.017l-3.945 6.834A1.406 1.406 0 1 0 8.183 46.6l4.748-8.223h-2.888Zm32.209 6.817-3.946-6.834c-.115.01-.231.017-.349.017H35.07l4.748 8.223a1.406 1.406 0 1 0 2.435-1.406Z"/><path d="M9.386 44.517h29.229l-1.624-2.812H11.009l-1.623 2.812ZM37.8 30.915a3.004 3.004 0 0 1-3.005 3.004h0-21.721a3.004 3.004 0 0 1-3.004-3.004H6.25v3.668a3.792 3.792 0 0 0 3.793 3.793h27.914a3.792 3.792 0 0 0 3.792-3.793v-3.668H37.8Z"/></g></svg>