<svg width="48" height="48" viewBox="0 0 48 48" fill="none" xmlns="http://www.w3.org/2000/svg"><path d="M39.469 4.688H8.53v23.25c0 .692.382 1.328.993 1.654l1.82.97v12.75h3.75v-10.75l6.094 3.25h5.625l6.093-3.25v10.75h3.75v-12.75l1.82-.97c.611-.326.993-.962.993-1.654V4.688ZM8.531.938H39.47M24.473 47.063H8.531v-3.75H39.47v3.75h-6.56" stroke="#6F9CC1" stroke-width="1.4" stroke-miterlimit="10" stroke-linecap="round" stroke-linejoin="round"/><path d="M26.813 35.813h-5.625v3.75h5.625v-3.75Zm12.656-13.969H19.312v3.75H39.47v-3.75ZM24 .938v3.75M17.438.938v3.75M37.125.938v3.75M30.563.938v3.75M10.875.938v3.75m4.219 27.875v-2.376m17.812 2.376v-2.376m-6.093-16.968h-5.625m5.625 4.219h-5.625M26.813 9h-5.625m0 12.844V4.687m5.625.001v17.156" stroke="#6F9CC1" stroke-width="1.4" stroke-miterlimit="10" stroke-linecap="round" stroke-linejoin="round"/></svg>