<svg width="48" height="48" viewBox="0 0 48 48" fill="none" xmlns="http://www.w3.org/2000/svg"><g clip-path="url(#a)" stroke="#6F9CC1" stroke-width="1.4" stroke-miterlimit="10" stroke-linecap="round" stroke-linejoin="round"><path d="M10.742 47.297v-22.35c0-.523.424-.947.947-.947H36.31c.523 0 .947.424.947.947v22.35m-.71-37.814 10.435 7.635c.343.25.417.731.167 1.073l-1.078 1.472a.769.769 0 0 1-1.074.167L24.56 4.875a.948.948 0 0 0-1.12 0L3.003 19.83a.769.769 0 0 1-1.074-.167L.85 18.191a.768.768 0 0 1 .167-1.073l21.99-16.09a1.68 1.68 0 0 1 1.984 0L33.9 7.545M10.742 41.236H4.234m39.532 0h-6.508M2.34 47.297h43.32m-1.894-14.249V18.929m0 28.368V36.329M4.234 47.297V30.904m0-3.282V18.93"/><path d="M27.978 18.053h-7.956a.758.758 0 0 1-.757-.758V15.78c0-.419.34-.758.758-.758h7.955c.418 0 .757.34.757.758v1.515a.758.758 0 0 1-.757.758Zm-7.103 20.152h-2.841v2.841h2.84v-2.84Z"/><path d="M24 38.205h-9.091v9.092H24v-9.092Zm5.966 0h-2.84v2.841h2.84v-2.84Z"/><path d="M33.092 38.205H24v9.092h9.092v-9.092Zm-7.672-9.091h-2.84v2.84h2.84v-2.84Z"/><path d="M28.546 29.114h-9.092v9.091h9.092v-9.091Z"/></g><defs><clipPath id="a"><path fill="#fff" d="M0 0h48v48H0z"/></clipPath></defs></svg>