<svg width="48" height="48" viewBox="0 0 48 48" fill="none" xmlns="http://www.w3.org/2000/svg"><g clip-path="url(#a)" stroke="#6F9CC1" stroke-width="1.4" stroke-miterlimit="22.926"><path d="M48 44.888c-2.47 0-3.746 2.409-6 2.409s-3.53-2.41-6-2.41-3.746 2.41-6 2.41-3.53-2.41-6-2.41-3.746 2.41-6 2.41-3.53-2.41-6-2.41-3.746 2.41-6 2.41c-2.03 0-3.267-1.954-5.297-2.342v-9.91h12.703a1.41 1.41 0 0 1 1.406 1.405 1.41 1.41 0 0 1-1.406 1.407H.703m11.297 0v7.03"/><path d="M36 44.888a5.624 5.624 0 0 0 4.467-2.218m.727-1.254a5.57 5.57 0 0 0 .431-2.153v-5.625L30 30.122l-11.625 3.516v5.625c0 3.094 2.531 5.625 5.625 5.625"/><path d="M40.219 33.212v-2.938L30 27.184l-10.219 3.09v2.938"/><path d="M21.187 29.849V24h17.625v5.849M27.89 24v-2.813h4.22V24M30 30.122v17.175M2.11 35.044v-2.812H12v2.812m-7.758-2.813v-22.5m0-4.218V.703h2.11m1.406 0h2.11v4.81m.05 4.218v22.5"/><path clip-rule="evenodd" d="M.703 5.513h23.672l14.062 1.406V9.73H.703V5.513Z"/><path d="M4.242 15.356h5.625m-5.625 5.625h5.625m0 5.625H4.242m0-16.875 5.625 5.625m-5.625 11.25 5.677 5.625m-5.677-11.25 5.625 5.625m-5.625-11.25 5.625 5.625m1.852-15.468 4.219 4.218m4.218-4.218 4.219 4.218m-8.437-4.218 4.218 4.218m11.602 5.479A1.758 1.758 0 1 1 30 13.454V9.731m7.575 25.621 1.346.407m-4.038-1.222 1.346.407"/></g><defs><clipPath id="a"><path fill="#fff" d="M0 0h48v48H0z"/></clipPath></defs></svg>