<svg width="16" height="12" viewBox="0 0 16 12" fill="none" xmlns="http://www.w3.org/2000/svg"><mask id="a" style="mask-type:luminance" maskUnits="userSpaceOnUse" x="0" y="0" width="16" height="12"><path d="M0 0h15.998v12H0V0Z" fill="#fff"/></mask><g mask="url(#a)"><path fill-rule="evenodd" clip-rule="evenodd" d="M-1.001 9h18v3h-18V9Zm0-9h18v3h-18V0Z" fill="red"/><path fill-rule="evenodd" clip-rule="evenodd" d="M-1.001 3h18v6h-18V3Z" fill="#fff"/><path d="M7.908 3.047c-.183.364-.305.364-.61.61-.122.12-.305.18-.06.304-.247.12-.369.18-.49.425l.06.06s.235-.112.244-.06c.042.049-.305.234-.35.264l-.257.164c-.307.242-.492.18-.673.547l.61-.061c.122.426-.305.487-.61.67l-.49.305c.125.426.49.182.795.06l.061.061v.122l-.61.305s-.721.413-.733.427a.957.957 0 0 0 0 .121c.244.061.61.122.856 0 .304-.121.365-.243.73-.243a2.358 2.358 0 0 1-1.218.487v.244c.366 0 .61 0 .914-.061l.792-.244c.183 0 .368.183.305.366-.18.67-.914.548-1.158 1.097l.975-.368c.244-.122.488-.242.792-.18.366.121.366.365.853.487l-.121-.305c.121.061.243.061.368.122.304.122.365.244.73.183-.304-.366-.365-.305-.609-.549-.243-.365-.368-.914 0-.975l.427.122c.427.061.427-.06 1.036.183.368.122.49.305.914.183-.18-.427-.85-.731-1.28-.853.49-.305.366.122 1.039-.061v-.122c-.486-.368-.67-.673-1.341-.673l1.038-.122v-.121S9.813 5.7 9.79 5.688c.007-.03.032-.077.1-.105.195.127.78.113.816.11-.019-.15-.298-.274-.54-.396 0 0-1.047-.644-1.051-.7.02-.165.428.025.867.152-.122-.244-.366-.366-.61-.427l.366-.06c-.244-.55-.853-.488-1.219-.732-.246-.183-.246-.305-.611-.485v.002Z" fill="#007900"/><path fill-rule="evenodd" clip-rule="evenodd" d="M7.249 7.101c.044-.143.103-.272-.169-.396s.136.495.169.399V7.1Zm.32-.288c-.053.007-.083.206.027.262.122.02.023-.26-.026-.262Zm.317-.024c-.056.02-.058.3.14.249.203-.05 0-.27-.14-.246v-.003Zm.37-.72c.043-.07-.002-.35-.173-.233-.173.12.117.253.174.234Zm-.374-.233c.054-.022.058-.195-.094-.148-.148.044.054.183.094.148Zm-.338.068s-.105-.146-.187-.115c-.101.098.194.117.187.115Zm-1.162.464c.044.004.375-.054.49-.183.114-.13-.589.054-.589.056 0 .002.066.115.099.127Zm3.307-.82c.016-.031-.176-.167-.291-.113-.03.1.29.133.29.112Zm-.652-.329c.038-.051-.082-.265-.321-.145-.239.117.25.23.321.147V5.22Zm-.752-.124s.058-.192.201-.155c.164.124-.194.162-.201.155Zm-.14-.145c-.024-.054-.172-.024-.343.091-.173.11.394.033.342-.094v.003Zm.437-.518s.153-.07.2 0c.063.1-.202 0-.2 0Zm-.128-.068c-.031-.061-.2-.068-.195.023-.028.07.22.056.195-.023Zm-.404 0c-.016-.035-.257 0-.328.145.117.056.382-.054.328-.145Zm-.515.147s-.314.195-.335.335c.009.122.393-.22.393-.22s.033-.136-.056-.115h-.002Zm-.35-.175c.01-.04.158-.132.17-.125.011.04-.12.148-.17.125Zm.101.74c.007-.058-.375-.054-.232.122.122.148.258-.096.232-.122Zm-.351.251c-.019-.038-.047-.14-.099-.15-.044 0-.274.047-.293.084-.009.03.096.22.132.225.042.017.255-.14.262-.159h-.002Zm2.072 1.294c.011-.042.405-.176.539-.047.16.218-.549.117-.54.047Zm1.078.255c.086-.145-.265-.319-.413-.152.052.199.342.272.413.152Z" fill="#fff" stroke="#fff" stroke-width=".375" stroke-linecap="round" stroke-linejoin="round"/></g></svg>