<svg width="16" height="12" viewBox="0 0 16 12" fill="none" xmlns="http://www.w3.org/2000/svg"><path d="M0 0h16v12H0V0Z" fill="#fff"/><path d="M7.695 9.965a.02.02 0 0 1-.005-.005h-.003l-.032-.035-.095-.113-.123-.157-.015-.023-.155-.047-.115-.053.06-.067.21.087.155.033.288.212-.083.073a.93.93 0 0 0-.082.087l.017-.012.02.015-.04.005h-.002Zm-1.065-.32a.793.793 0 0 1-.4-.113s.017-.032.057-.06a.38.38 0 0 1 .225-.065c.135 0 .3.048.488.135a.72.72 0 0 1-.37.1v.003Zm-.588-.13a.095.095 0 0 1-.065-.025.13.13 0 0 1-.027-.06.292.292 0 0 1-.008-.085.087.087 0 0 1 .033-.005c.05 0 .09.042.107.085.01.025.013.045.005.062-.005.015-.025.025-.045.025v.003Zm1.033-.12c-.348-.05-.495-.175-.558-.273-.065-.102-.05-.2-.05-.2s.02-.005.05-.005c.095 0 .33.048.558.475v.003Zm-.713-.07c-.147 0-.26-.025-.335-.075a.207.207 0 0 1-.075-.083.135.135 0 0 1-.01-.04.455.455 0 0 1 .18-.035.675.675 0 0 1 .473.218c-.085.01-.163.015-.233.015ZM5.645 9.3c-.155 0-.37-.05-.505-.183 0 0 .147-.037.31-.042h.03c.147 0 .26.027.335.085.025.02.04.037.042.055.003.015-.005.03-.02.042-.035.025-.095.04-.18.04h-.012V9.3Zm-.508-.263a.065.065 0 0 1-.05-.025.117.117 0 0 1-.02-.05c-.007-.035-.005-.07-.005-.072a.06.06 0 0 1 .025-.005c.023 0 .04.012.05.025a.14.14 0 0 1 .035.05c.005.022.008.04 0 .055 0 .01-.015.025-.032.025l-.003-.003Zm1.173-.025a.095.095 0 0 1-.065-.025.13.13 0 0 1-.028-.06.292.292 0 0 1-.007-.085.088.088 0 0 1 .032-.005c.05 0 .093.043.108.085.01.025.012.045.007.063-.007.015-.025.025-.05.025l.003.002Zm-.57-.025c-.315-.01-.48-.1-.56-.175a.365.365 0 0 1-.085-.107.162.162 0 0 1-.018-.05c0-.005.03-.01.075-.01h.01c.105 0 .323.045.575.342h.003Zm.34-.03a.77.77 0 0 1-.473-.232.485.485 0 0 1-.102-.175s.03-.008.075-.01a.36.36 0 0 1 .025 0c.125.002.357.06.475.417Zm-1.3-.125c-.08 0-.16-.007-.238-.025-.132-.035-.19-.085-.215-.122a.125.125 0 0 1-.02-.05v-.02s.088-.025.21-.028a.876.876 0 0 1 .185.015.542.542 0 0 1 .32.203s-.1.03-.242.03v-.003Zm.587-.21a.085.085 0 0 1-.062-.025.13.13 0 0 1-.028-.06c-.01-.04-.007-.08-.007-.085a.087.087 0 0 1 .03-.007h.002c.05 0 .09.045.108.087.01.025.01.045.005.06-.008.018-.025.028-.048.028v.002Zm-.44-.062a.965.965 0 0 1-.24-.105c-.11-.068-.247-.188-.262-.375l.025-.003h.007c.033 0 .1.008.183.07.105.08.2.22.287.413Zm.288-.01a.78.78 0 0 1-.19-.123 1.212 1.212 0 0 1-.333-.465s.023-.012.058-.015h.015c.05 0 .122.023.202.11.095.1.178.265.25.493h-.002Zm-.748-.023c-.097 0-.13-.05-.14-.075a.15.15 0 0 1-.01-.075.212.212 0 0 1 .05-.005.2.2 0 0 1 .163.075c.005.01.02.035.007.058-.01.015-.032.025-.07.025v-.003Zm-.212-.27a1.312 1.312 0 0 1-.225-.017c-.085-.015-.133-.088-.16-.148-.025-.062-.035-.125-.035-.125.265.008.392.085.45.15.036.038.06.086.065.138 0 0-.04.005-.095.005v-.003Zm.275-.275a1.068 1.068 0 0 1-.06-.085c-.033-.05-.06-.1-.06-.14 0-.042-.01-.125-.015-.175L4.38 7.47c.007 0 .165.06.165.21s-.015.3-.015.3v.002Zm-.205-.015H4.32a1.092 1.092 0 0 1-.455-.27.408.408 0 0 1-.078-.235c-.005-.075 0-.137 0-.145a.083.083 0 0 1 .028-.002c.035 0 .075.015.125.05a.99.99 0 0 1 .13.11c.08.08.142.16.142.16.008.01.05.092.088.172a.55.55 0 0 1 .04.115c.002.015.005.025 0 .035a.018.018 0 0 1-.008.01h-.01.003Z" fill="#435125"/><path d="M7.149 9.965a.02.02 0 0 0 .005-.005h.002l.033-.035.095-.113.122-.157.015-.023.155-.047.115-.053-.06-.067-.21.087-.155.033-.287.212.082.073a.93.93 0 0 1 .083.087l-.018-.012-.02.015.04.005h.003Zm1.065-.32a.793.793 0 0 0 .4-.113s-.018-.032-.058-.06a.38.38 0 0 0-.225-.065c-.135 0-.3.048-.487.135.112.066.24.1.37.1v.003Zm.587-.13c.025 0 .05-.01.065-.025a.13.13 0 0 0 .028-.06.292.292 0 0 0 .007-.085.087.087 0 0 0-.032-.005c-.05 0-.09.042-.108.085-.01.025-.012.045-.005.062.005.015.025.025.045.025v.003Zm-1.032-.12c.347-.05.495-.175.557-.273.065-.102.05-.2.05-.2s-.02-.005-.05-.005c-.095 0-.33.048-.557.475v.003Zm.712-.07c.148 0 .26-.025.335-.075a.207.207 0 0 0 .075-.083.135.135 0 0 0 .01-.04.455.455 0 0 0-.18-.035.675.675 0 0 0-.472.218c.085.01.162.015.232.015ZM9.2 9.3c.155 0 .37-.05.505-.183 0 0-.148-.037-.31-.042h-.03c-.148 0-.26.027-.335.085-.025.02-.04.037-.043.055-.002.015.005.03.02.042.035.025.095.04.18.04H9.2V9.3Zm.507-.263a.065.065 0 0 0 .05-.025.117.117 0 0 0 .02-.05c.008-.035.005-.07.005-.072a.06.06 0 0 0-.025-.005.065.065 0 0 0-.05.025.14.14 0 0 0-.035.05c-.005.022-.007.04 0 .055 0 .01.015.025.033.025l.002-.003Zm-1.172-.025c.025 0 .05-.01.065-.025a.13.13 0 0 0 .027-.06.292.292 0 0 0 .008-.085.088.088 0 0 0-.033-.005c-.05 0-.092.043-.107.085-.01.025-.013.045-.008.063.008.015.025.025.05.025l-.002.002Zm.57-.025c.315-.01.48-.1.56-.175a.365.365 0 0 0 .085-.107.162.162 0 0 0 .017-.05c0-.005-.03-.01-.075-.01h-.01c-.105 0-.322.045-.575.342h-.002Zm-.34-.03a.77.77 0 0 0 .472-.232.485.485 0 0 0 .103-.175s-.03-.008-.075-.01a.36.36 0 0 0-.025 0c-.125.002-.358.06-.475.417Zm1.3-.125c.08 0 .16-.007.237-.025.133-.035.19-.085.215-.122a.126.126 0 0 0 .02-.05v-.02s-.087-.025-.21-.028a.875.875 0 0 0-.185.015.542.542 0 0 0-.32.203s.1.03.243.03v-.003Zm-.588-.21a.085.085 0 0 0 .063-.025.13.13 0 0 0 .027-.06c.01-.04.008-.08.008-.085a.087.087 0 0 0-.03-.007H9.54c-.05 0-.09.045-.107.087a.087.087 0 0 0-.005.06c.007.018.025.028.047.028v.002Zm.44-.062a.965.965 0 0 0 .24-.105c.11-.068.248-.188.263-.375l-.025-.003h-.008c-.032 0-.1.008-.182.07-.105.08-.2.22-.288.413Zm-.287-.01a.78.78 0 0 0 .19-.123c.146-.126.26-.286.332-.465 0 0-.022-.012-.057-.015h-.015c-.05 0-.123.023-.203.11-.095.1-.177.265-.25.493h.003Zm.747-.023c.098 0 .13-.05.14-.075a.15.15 0 0 0 .01-.075.212.212 0 0 0-.05-.005.2.2 0 0 0-.162.075c-.005.01-.02.035-.008.058.01.015.033.025.07.025v-.003Zm.213-.27c.075.001.15-.005.225-.017.085-.015.132-.088.16-.148.025-.062.035-.125.035-.125-.265.008-.393.085-.45.15a.235.235 0 0 0-.065.138s.04.005.095.005v-.003Zm-.275-.275c.021-.027.041-.056.06-.085.032-.05.06-.1.06-.14 0-.042.01-.125.015-.175l.015-.112c-.008 0-.165.06-.165.21s.015.3.015.3v.002Zm.205-.015h.005a1.09 1.09 0 0 0 .455-.27c.042-.05.07-.13.077-.235.005-.075 0-.137 0-.145a.083.083 0 0 0-.027-.002c-.035 0-.075.015-.125.05a.992.992 0 0 0-.13.11c-.08.08-.143.16-.143.16a2.32 2.32 0 0 0-.087.172.545.545 0 0 0-.04.115c-.003.015-.005.025 0 .035a.017.017 0 0 0 .007.01h.01-.002Z" fill="#435125"/><path d="m12.975 1.91-.045.018-.02.007-.056-.002-.054.025-.096.065-.002.002-.037.01-.033-.015-.018.01-.007.038-.018.027-.022.015-.075.008-.063.035-.085-.025-.037.017-.082.075-.043.018h-.013l-.057-.003-.023.008-.034.032-.066.005-.022.015-.033.065-.034.04-.02.003-.02-.008-.018.003-.008.042-.014.018-.046.015-.034.03-.033.015h-.05l-.043.025-.077.005-.033.03-.007.007-.015.008-.025.015-.005.005-.03-.005-.035.012-.015-.02-.025.013-.03.002-.04-.017-.032-.015-.023.005-.008.037v.005l-.024.03-.043.028-.005.007-.05.065-.095.1-.08.04-.082.025-.058.048-.15.075-.243.12-.05.015-.07.01-.124.047-.11.033-.008.002-.02.008-.157.047-.073-.01-.042.018-.113-.013H9.54l-.05.01-.093.045-.157.075-.05.05-.08.04-.095.03v-.04l-.033.01-.025.008-.075.01H8.84l-.028-.008h-.005l-.155.053-.175.017-.087.028h-.065l-.04.012-.08.01-.03-.007-.005-.003-.235.01-.108-.012-.05.012-.087-.03-.125-.015-.03-.007-.065-.02-.03.017-.025.003-.05-.02h-.02l-.045.015-.025-.005-.025-.02-.053-.008-.035-.027-.187.025-.05-.015-.173-.05h-.025l-.035.025-.05.02-.047.01-.06.002-.07-.017-.07-.035-.028-.008-.06.008H6.29l-.11-.058-.14-.087-.095-.048-.038-.005-.005.018.018.055.007.057v.05l-.002.033.007.027.035.04.015.038.01.105v.107l-.017.17-.005.025-.02.09-.018.083-.072.217-.018.025-.05.033-.107.075-.08.045-.025.01-.065.005h-.04l-.05-.028-.05-.012-.065-.048-.07-.015-.08-.045-.02-.025-.043-.005-.06-.017-.022-.008L5 4.428l-.075-.003-.073-.032-.037-.01h-.05l-.053.025-.027.01-.035-.013h-.025l-.025.043-.005.007-.02.01h-.043l-.02.008-.027.012-.025.01-.013.005H4.44l-.013.005h-.015l-.03-.015-.015-.007-.025-.005-.012.007-.003.048-.012.027-.04.035-.04.035-.025.04-.075.168-.048.067-.012.018-.05.052-.043.033-.097.075-.093.037-.08.015h-.04l-.075-.01-.065-.02-.075-.045-.077-.065-.118-.112-.015-.01-.005-.003-.035-.025H3.18l-.01.02-.008.025-.005.023-.012.125v.007l.007.053.09.125.025.065.005.007.018.03.015.025.032.09-.022.05.01.035-.025.02-.005.03.077.1.018.043-.018.06-.032.035-.008.007.005.025.035.035.063.055.032.08.025.025.03-.007.015.012h.025l.025.025.015.005.025.013.02.025.003.08.037.095v.062l.025.038.005.03-.012.082.03.025.03-.005.02.003.032.027.04.06.04-.005.025.01.118.108.025.015.022.01.025.025.035-.025h.005l.04-.005.018.012.035.023h.042l.1.03.04.01.085.052.038.023.02.017.03.025.055.025.05.01.025.005.022.008.105.042.058.013.05.02.04.012h.03l.04-.032h.037l.033.005.032-.005.05-.03.008-.015.035-.015.12-.015.035.01.09-.038.06.015.05-.017.117.025.03.022.035.038h.043l-.018.027.05.055.048.068.002.01.033.097.025.035.017.048v.03l-.025.022-.005.01v.005l.005.013.01-.005.018-.01.025-.005.04.005.027.002.043-.02.03-.015.045.02h.05l.022.008.06.027.03.003.01-.008.008-.015-.003-.02-.025-.027-.05-.06-.02-.03-.015-.043-.005-.055-.005-.037.008-.05.012-.018.01-.04.003-.01.03-.037.075-.05.08-.07.062-.043.065-.027V6.8l.01.003.165-.058.075-.012.5.035.018-.005.017-.048.008-.007.007-.005.055-.025.025-.005.07.017.03.008.048-.025h.032l.068-.038h.042l.018-.005.082-.06.078-.022.02-.01.007-.005.083-.043.05-.04.045-.025.05-.01.125-.01.027-.042.055-.008.033-.037.037-.015.028-.04.025-.033.03-.017.102-.008.12.015.018-.01.025-.097.03-.018.075-.112v-.04l.002-.035.013-.05-.008-.085.01-.09.048-.113.042-.045.068-.047.035-.015.05-.008h.005l.012-.005h.23l.058-.002.142.025h.01l.048.017.055.043.06.057.01.01.037.018.013.005.03-.005.045-.025.034-.025.046-.025v-.005l.027-.038.01-.017.09-.035.105-.005.012-.008h.005l.028-.035h.025l.065.025.043-.01.034.013.028-.003.05-.007.058.04.032.005.112.065h.01l.005.002.013-.005.02-.005h.003l.002.003.015.017.018.003.02-.025-.008-.015-.002-.005-.043-.008-.035-.062.035-.038-.055-.065-.01-.012V5.31l-.02-.03-.095-.145-.125-.1-.043-.032-.014-.013-.068-.067-.047-.063-.005-.012-.01-.023-.028-.06-.05-.037-.04-.045-.085-.115-.012-.018-.02-.012h-.043l-.002-.005h-.003V4.53l.02-.02.025-.005.008-.022-.043-.123v-.005l-.002-.037.032-.178.005-.022.06-.118.035-.03.04-.077.035-.05.033-.033.005-.002.057-.035.05-.008.047-.007.083.025h.075l.017-.003.035-.005.058-.017.027-.018.016-.02.03-.1.01-.032.017-.035.107-.123.08-.075.18-.13.088-.052.045-.028.402-.18.106-.105.054-.055.096-.065.112-.047.1-.075.02-.028.025-.087.025-.005.018-.043.007-.012.078-.055.01-.005.307-.155.045.007.025-.037.088-.015h.017l.022-.013.018-.032V2.13l.003-.085.02-.022.01-.055.01-.015.01-.013.024-.017-.004-.01V1.91Z" fill="#D47600"/></svg>