<svg width="48" height="48" viewBox="0 0 48 48" fill="none" xmlns="http://www.w3.org/2000/svg"><mask id="a" style="mask-type:luminance" maskUnits="userSpaceOnUse" x="0" y="0" width="48" height="48"><path d="M0 0h48v48H0V0Z" fill="#fff"/></mask><g mask="url(#a)" stroke="#6F9CC1" stroke-width="1.4" stroke-miterlimit="10" stroke-linecap="round" stroke-linejoin="round"><path d="M.703 27.52h46.594c-.856 3.428-4.75 10.282-9.392 10.282H5.19l-2.665-7.099H.704V27.52Zm1.821 0h9.567V22.5H2.524v5.02Zm7.14-11.855H3.791V22.5h7.032v-2.395l4.579-1.41v-3.03h-2.554M8.67 25.009h.941m-4.61 0h.94m-.688 5.694h20.595M7.432 19.337v-.94m-.125-8.199v5.467m-1.525-5.467H8.83m6.827 17.322h9.856v-5.711h-9.856v5.71Zm9.856 0h9.86v-5.711h-9.86v5.71Z"/><path d="M41.894 21.809h3.338v5.71h-9.86v-5.71h3.339m7.119 9.328h-6.466m-3.183 0h-6.466l-3.277 2.274h-22.9"/></g></svg>