<svg width="48" height="48" viewBox="0 0 48 48" fill="none" xmlns="http://www.w3.org/2000/svg">
<mask id="mask0_477_523" style="mask-type:luminance" maskUnits="userSpaceOnUse" x="0" y="0" width="48" height="48">
<path d="M0 3.8147e-06H48V48H0V3.8147e-06Z" fill="white"/>
</mask>
<g mask="url(#mask0_477_523)">
<path d="M37.9571 38.3755H10.0429C7.94863 38.3755 6.25092 36.6778 6.25092 34.5834V7.61837C6.25092 3.79918 9.34691 0.703178 13.1661 0.703178H34.8339C38.6531 0.703178 41.7491 3.79918 41.7491 7.61837V34.5834C41.7491 36.6778 40.0514 38.3755 37.9571 38.3755Z" stroke="#6F9CC1" stroke-width="1.4" stroke-miterlimit="10" stroke-linecap="round" stroke-linejoin="round"/>
<path d="M19.1594 7.1652V4.86017C19.1594 4.50364 19.4484 4.2147 19.8047 4.2147H28.1953C28.5517 4.2147 28.8407 4.50364 28.8407 4.86017V7.1652C28.8407 7.52164 28.5517 7.81067 28.1953 7.81067H19.8047C19.4484 7.81067 19.1594 7.52164 19.1594 7.1652Z" stroke="#6F9CC1" stroke-width="1.4" stroke-miterlimit="10" stroke-linecap="round" stroke-linejoin="round"/>
<path d="M9.93903 21.6791V12.2128C9.93903 11.3471 10.6407 10.6454 11.5065 10.6454H36.4935C37.3592 10.6454 38.061 11.3471 38.061 12.2128V21.6791C38.061 22.5447 37.3592 23.2465 36.4935 23.2465H11.5065C10.6407 23.2465 9.93903 22.5447 9.93903 21.6791Z" stroke="#6F9CC1" stroke-width="1.4" stroke-miterlimit="10" stroke-linecap="round" stroke-linejoin="round"/>
<path d="M16.0782 30.9151C16.0782 32.5743 14.7331 33.9193 13.0739 33.9193C11.4147 33.9193 10.0696 32.5743 10.0696 30.9151C10.0696 29.2558 11.4147 27.9108 13.0739 27.9108C14.7331 27.9108 16.0782 29.2558 16.0782 30.9151Z" stroke="#6F9CC1" stroke-width="1.4" stroke-miterlimit="10" stroke-linecap="round" stroke-linejoin="round"/>
<path d="M37.7997 30.9151C37.7997 32.5743 36.4547 33.9193 34.7954 33.9193C33.1362 33.9193 31.7912 32.5743 31.7912 30.9151C31.7912 29.2558 33.1362 27.9108 34.7954 27.9108C36.4547 27.9108 37.7997 29.2558 37.7997 30.9151Z" stroke="#6F9CC1" stroke-width="1.4" stroke-miterlimit="10" stroke-linecap="round" stroke-linejoin="round"/>
<path d="M31.7912 30.9151C31.7912 29.2558 33.1362 27.9108 34.7954 27.9108H13.0742C14.7333 27.911 16.0782 29.2559 16.0782 30.9151C16.0782 32.5741 14.7334 33.9191 13.0744 33.9193H34.7954C33.1362 33.9193 31.7912 32.5743 31.7912 30.9151Z" stroke="#6F9CC1" stroke-width="1.4" stroke-miterlimit="10" stroke-linecap="round" stroke-linejoin="round"/>
<path d="M10.0429 38.3755C9.92509 38.3755 9.80865 38.3693 9.69353 38.3588L5.74778 45.1932C5.35937 45.8657 5.58981 46.7258 6.26246 47.1141C6.93474 47.5023 7.795 47.2722 8.1834 46.5994L12.9315 38.3755H10.0429Z" stroke="#6F9CC1" stroke-width="1.4" stroke-miterlimit="10" stroke-linecap="round" stroke-linejoin="round"/>
<path d="M42.2523 45.1932L38.3065 38.3589C38.1914 38.3693 38.075 38.3755 37.9571 38.3755H35.0686L39.8167 46.5994C40.2052 47.2724 41.0654 47.5022 41.7376 47.1141C42.4102 46.7258 42.6406 45.8657 42.2523 45.1932Z" stroke="#6F9CC1" stroke-width="1.4" stroke-miterlimit="10" stroke-linecap="round" stroke-linejoin="round"/>
<path d="M9.3855 44.5173H38.6145L36.9907 41.7048H11.0092L9.3855 44.5173Z" stroke="#6F9CC1" stroke-width="1.4" stroke-miterlimit="10" stroke-linecap="round" stroke-linejoin="round"/>
<path d="M37.7998 30.9151C37.7998 32.5742 36.4547 33.9193 34.7954 33.9193H34.7951H13.0744H13.0739C11.4148 33.9193 10.0696 32.5742 10.0696 30.9151H6.25092V34.5834C6.25092 36.6777 7.94863 38.3755 10.0429 38.3755H37.9571C40.0514 38.3755 41.7492 36.6777 41.7492 34.5834V30.9151H37.7998Z" stroke="#6F9CC1" stroke-width="1.4" stroke-miterlimit="10" stroke-linecap="round" stroke-linejoin="round"/>
</g>
</svg>
