<svg width="48" height="48" viewBox="0 0 48 48" fill="none" xmlns="http://www.w3.org/2000/svg">
<path fill-rule="evenodd" clip-rule="evenodd" d="M16.2058 30.4619C17.7592 30.4619 19.0183 31.7211 19.0183 33.2744C19.0183 34.8278 17.7592 36.0869 16.2058 36.0869C14.6525 36.0869 13.3933 34.8278 13.3933 33.2744C13.3933 31.7211 14.6525 30.4619 16.2058 30.4619ZM40.9688 30.4619C42.5221 30.4619 43.7813 31.7211 43.7813 33.2744C43.7813 34.8278 42.5221 36.0869 40.9688 36.0869C39.4154 36.0869 38.1563 34.8278 38.1563 33.2744C38.1563 31.7211 39.4154 30.4619 40.9688 30.4619ZM7.76831 30.4619C9.32165 30.4619 10.5808 31.7211 10.5808 33.2744C10.5808 34.8278 9.32165 36.0869 7.76831 36.0869C6.21497 36.0869 4.95581 34.8278 4.95581 33.2744C4.95581 31.7211 6.21497 30.4619 7.76831 30.4619Z" stroke="#6F9CC1" stroke-width="1.4" stroke-miterlimit="22.9256"/>
<path d="M46.5937 18.7598H37.7986V23.892H47.2969" stroke="#6F9CC1" stroke-width="1.4" stroke-miterlimit="22.9256"/>
<path d="M44.4844 28.3558C44.0978 28.3558 43.7844 28.6692 43.7844 29.0558C43.7844 29.4424 44.0978 29.7558 44.4844 29.7558V28.3558ZM44.4844 29.7558H47.2969V28.3558H44.4844V29.7558Z" fill="#6F9CC1"/>
<path d="M0.703125 30.4619H33.9861C34.5384 30.4619 34.9861 30.0142 34.9861 29.4619V15.7253C34.9861 15.1731 35.4338 14.7253 35.9861 14.7253H41.4882C41.7258 14.7253 41.9556 14.8099 42.1365 14.964L46.3032 18.5122C46.4903 18.6716 46.6122 18.8943 46.6456 19.1378L47.2969 23.8919V32.2744C47.2969 32.8267 46.8492 33.2744 46.2969 33.2744H43.7812" stroke="#6F9CC1" stroke-width="1.4" stroke-miterlimit="22.9256"/>
<path d="M37.0954 26.7043H39.9079" stroke="#6F9CC1" stroke-width="1.4" stroke-miterlimit="22.9256" stroke-linecap="round"/>
<path d="M14.6806 15.5311V26.8437M7.64934 26.8437V15.5311M11.165 26.8437V15.5311M25.2274 26.8437V15.5311M21.7117 15.5311V26.8437M18.1961 26.8437V15.5311" stroke="#6F9CC1" stroke-width="1.4" stroke-miterlimit="22.9256" stroke-linecap="round"/>
<path d="M32.1736 30.462V12.913C32.1736 12.3607 31.7259 11.913 31.1736 11.913H1.70313C1.15084 11.913 0.703125 12.3607 0.703125 12.913V15.4286M0.703125 18.8348V32.2745C0.703125 32.8268 1.15084 33.2745 1.70312 33.2745H4.95581M10.5808 33.2745H13.3933M19.0183 33.2745H31.2345M34.6407 33.2745H38.1562" stroke="#6F9CC1" stroke-width="1.4" stroke-miterlimit="22.9256" stroke-linecap="round"/>
<path d="M29.3611 19.8348V18.8348" stroke="#6F9CC1" stroke-width="1.4" stroke-miterlimit="22.9256" stroke-linecap="round" stroke-linejoin="bevel"/>
<path d="M29.3611 16.0223V15.0223" stroke="#6F9CC1" stroke-width="1.4" stroke-miterlimit="22.9256" stroke-linecap="round" stroke-linejoin="bevel"/>
</svg>
