<svg width="48" height="48" viewBox="0 0 48 48" fill="none" xmlns="http://www.w3.org/2000/svg">
<g clip-path="url(#clip0_477_431)">
<path d="M10.7416 47.2968V24.9469C10.7416 24.4239 11.1657 23.9999 11.6887 23.9999H36.3113C36.8343 23.9999 37.2583 24.4239 37.2583 24.9469V47.2968" stroke="#6F9CC1" stroke-width="1.4" stroke-miterlimit="10" stroke-linecap="round" stroke-linejoin="round"/>
<path d="M36.5474 9.48279L46.9818 17.1178C47.3249 17.3681 47.399 17.849 47.1487 18.1912L46.0715 19.6631C45.8202 20.0062 45.3402 20.0802 44.9971 19.8299L24.5597 4.87499C24.2259 4.63124 23.7741 4.63124 23.4403 4.87499L3.00289 19.8299C2.65977 20.0802 2.17977 20.0062 1.92852 19.6631L0.85134 18.1912C0.601028 17.849 0.67509 17.3681 1.01821 17.1178L23.0081 1.02751C23.5988 0.595323 24.4012 0.595323 24.9919 1.02751L33.9 7.54498" stroke="#6F9CC1" stroke-width="1.4" stroke-miterlimit="10" stroke-linecap="round" stroke-linejoin="round"/>
<path d="M10.7417 41.2357H4.23373" stroke="#6F9CC1" stroke-width="1.4" stroke-miterlimit="10" stroke-linecap="round" stroke-linejoin="round"/>
<path d="M43.7663 41.2357H37.2584" stroke="#6F9CC1" stroke-width="1.4" stroke-miterlimit="10" stroke-linecap="round" stroke-linejoin="round"/>
<path d="M2.33989 47.2968H45.6601" stroke="#6F9CC1" stroke-width="1.4" stroke-miterlimit="10" stroke-linecap="round" stroke-linejoin="round"/>
<path d="M43.7662 33.0477V18.929" stroke="#6F9CC1" stroke-width="1.4" stroke-miterlimit="10" stroke-linecap="round" stroke-linejoin="round"/>
<path d="M43.7662 47.2968V36.329" stroke="#6F9CC1" stroke-width="1.4" stroke-miterlimit="10" stroke-linecap="round" stroke-linejoin="round"/>
<path d="M4.23383 47.2968V30.9037" stroke="#6F9CC1" stroke-width="1.4" stroke-miterlimit="10" stroke-linecap="round" stroke-linejoin="round"/>
<path d="M4.23383 27.6224V18.929" stroke="#6F9CC1" stroke-width="1.4" stroke-miterlimit="10" stroke-linecap="round" stroke-linejoin="round"/>
<path d="M27.9776 18.0526H20.0225C19.6041 18.0526 19.2649 17.7134 19.2649 17.295V15.7797C19.2649 15.3613 19.6041 15.0221 20.0225 15.0221H27.9776C28.396 15.0221 28.7351 15.3613 28.7351 15.7797V17.295C28.7351 17.7134 28.396 18.0526 27.9776 18.0526Z" stroke="#6F9CC1" stroke-width="1.4" stroke-miterlimit="10" stroke-linecap="round" stroke-linejoin="round"/>
<path d="M20.8749 38.2052H18.0338V41.0463H20.8749V38.2052Z" stroke="#6F9CC1" stroke-width="1.4" stroke-miterlimit="10" stroke-linecap="round" stroke-linejoin="round"/>
<path d="M24 38.2052H14.9085V47.2967H24V38.2052Z" stroke="#6F9CC1" stroke-width="1.4" stroke-miterlimit="10" stroke-linecap="round" stroke-linejoin="round"/>
<path d="M29.9662 38.2052H27.1251V41.0463H29.9662V38.2052Z" stroke="#6F9CC1" stroke-width="1.4" stroke-miterlimit="10" stroke-linecap="round" stroke-linejoin="round"/>
<path d="M33.0915 38.2052H24V47.2967H33.0915V38.2052Z" stroke="#6F9CC1" stroke-width="1.4" stroke-miterlimit="10" stroke-linecap="round" stroke-linejoin="round"/>
<path d="M25.4206 29.1138H22.5795V31.9549H25.4206V29.1138Z" stroke="#6F9CC1" stroke-width="1.4" stroke-miterlimit="10" stroke-linecap="round" stroke-linejoin="round"/>
<path d="M28.5458 29.1138H19.4543V38.2053H28.5458V29.1138Z" stroke="#6F9CC1" stroke-width="1.4" stroke-miterlimit="10" stroke-linecap="round" stroke-linejoin="round"/>
</g>
<defs>
<clipPath id="clip0_477_431">
<rect width="48" height="48" fill="white"/>
</clipPath>
</defs>
</svg>
