<svg width="16" height="12" viewBox="0 0 16 12" fill="none" xmlns="http://www.w3.org/2000/svg">
<path d="M0 0H16V12H0V0Z" fill="white"/>
<path d="M7.69488 9.9647C7.69293 9.96334 7.69124 9.96165 7.68988 9.9597H7.68738L7.65488 9.9247L7.55988 9.8122L7.43738 9.6547L7.42238 9.6322L7.26738 9.5847L7.15238 9.5322L7.21238 9.4647L7.42238 9.5522L7.57738 9.5847L7.86488 9.7972L7.78238 9.8697C7.75302 9.89706 7.72546 9.92628 7.69988 9.9572L7.71738 9.9447L7.73738 9.9597L7.69738 9.9647H7.69488ZM6.62988 9.6447C6.48891 9.64344 6.35083 9.60461 6.22988 9.5322C6.22988 9.5322 6.24738 9.4997 6.28738 9.4722C6.32738 9.4422 6.39738 9.4097 6.51238 9.4072C6.64738 9.4072 6.81238 9.4547 6.99988 9.5422C6.88785 9.60835 6.75998 9.64291 6.62988 9.6422V9.6447ZM6.04238 9.5147C6.01738 9.5147 5.99238 9.5047 5.97738 9.4897C5.9632 9.4724 5.95373 9.45173 5.94988 9.4297C5.94324 9.40189 5.94071 9.37325 5.94238 9.3447C5.9528 9.34099 5.96383 9.3393 5.97488 9.3397C6.02488 9.3397 6.06488 9.3822 6.08238 9.4247C6.09238 9.4497 6.09488 9.4697 6.08738 9.4872C6.08238 9.5022 6.06238 9.5122 6.04238 9.5122V9.5147ZM7.07488 9.3947C6.72738 9.3447 6.57988 9.2197 6.51738 9.1222C6.45238 9.0197 6.46738 8.9222 6.46738 8.9222C6.46738 8.9222 6.48738 8.9172 6.51738 8.9172C6.61238 8.9172 6.84738 8.9647 7.07488 9.3922V9.3947ZM6.36238 9.3247C6.21488 9.3247 6.10238 9.2997 6.02738 9.2497C5.99532 9.22956 5.96938 9.20103 5.95238 9.1672C5.94702 9.15446 5.94364 9.14097 5.94238 9.1272C5.99938 9.10344 6.06062 9.09153 6.12238 9.0922C6.21161 9.0954 6.29931 9.11627 6.38042 9.15361C6.46153 9.19094 6.53442 9.244 6.59488 9.3097C6.50988 9.3197 6.43238 9.3247 6.36238 9.3247ZM5.64488 9.2997C5.48988 9.2997 5.27488 9.2497 5.13988 9.1172C5.13988 9.1172 5.28738 9.0797 5.44988 9.0747H5.47988C5.62738 9.0747 5.73988 9.1022 5.81488 9.1597C5.83988 9.1797 5.85488 9.1972 5.85738 9.2147C5.85988 9.2297 5.85238 9.2447 5.83738 9.2572C5.80238 9.2822 5.74238 9.2972 5.65738 9.2972H5.64488V9.2997ZM5.13738 9.0372C5.12771 9.03702 5.1182 9.03468 5.10955 9.03035C5.1009 9.02603 5.09333 9.01982 5.08738 9.0122C5.07693 8.99731 5.07008 8.98019 5.06738 8.9622C5.05988 8.9272 5.06238 8.8922 5.06238 8.8897C5.07026 8.88626 5.07878 8.88456 5.08738 8.8847C5.10988 8.8847 5.12738 8.8972 5.13738 8.9097C5.15258 8.92359 5.16453 8.94066 5.17238 8.9597C5.17738 8.9822 5.17988 8.9997 5.17238 9.0147C5.17238 9.0247 5.15738 9.0397 5.13988 9.0397L5.13738 9.0372ZM6.30988 9.0122C6.28488 9.0122 6.25988 9.0022 6.24488 8.9872C6.2307 8.9699 6.22123 8.94923 6.21738 8.9272C6.21074 8.89939 6.20821 8.87075 6.20988 8.8422C6.2203 8.8385 6.23133 8.8368 6.24238 8.8372C6.29238 8.8372 6.33488 8.8797 6.34988 8.9222C6.35988 8.9472 6.36238 8.9672 6.35738 8.9847C6.34988 8.9997 6.33238 9.0097 6.30738 9.0097L6.30988 9.0122ZM5.73988 8.9872C5.42488 8.9772 5.25988 8.8872 5.17988 8.8122C5.14501 8.78206 5.11617 8.74558 5.09488 8.7047C5.08238 8.6797 5.07738 8.6597 5.07738 8.6547C5.07738 8.6497 5.10738 8.6447 5.15238 8.6447H5.16238C5.26738 8.6447 5.48488 8.6897 5.73738 8.9872H5.73988ZM6.07988 8.9572C5.89995 8.93764 5.73266 8.85532 5.60738 8.7247C5.56126 8.67424 5.52633 8.61461 5.50488 8.5497C5.50488 8.5497 5.53488 8.5422 5.57988 8.5397C5.58821 8.53941 5.59655 8.53941 5.60488 8.5397C5.72988 8.5422 5.96238 8.5997 6.07988 8.9572ZM4.77988 8.8322C4.70002 8.83293 4.62034 8.82454 4.54238 8.8072C4.40988 8.7722 4.35238 8.7222 4.32738 8.6847C4.31716 8.66968 4.31033 8.65262 4.30738 8.6347C4.30659 8.62806 4.30659 8.62134 4.30738 8.6147C4.30738 8.6147 4.39488 8.5897 4.51738 8.5872C4.5794 8.58563 4.64142 8.59066 4.70238 8.6022C4.82991 8.62907 4.9435 8.70095 5.02238 8.8047C5.02238 8.8047 4.92238 8.8347 4.77988 8.8347V8.8322ZM5.36738 8.6222C5.35581 8.62251 5.3443 8.62045 5.33355 8.61615C5.3228 8.61185 5.31305 8.6054 5.30488 8.5972C5.2907 8.5799 5.28123 8.55923 5.27738 8.5372C5.26738 8.4972 5.26988 8.4572 5.26988 8.4522C5.27935 8.44794 5.28951 8.4454 5.29988 8.4447H5.30238C5.35238 8.4447 5.39238 8.4897 5.40988 8.5322C5.41988 8.5572 5.41988 8.5772 5.41488 8.5922C5.40738 8.6097 5.38988 8.6197 5.36738 8.6197V8.6222ZM4.92738 8.5597C4.84298 8.53577 4.76223 8.50045 4.68738 8.4547C4.57738 8.3872 4.43988 8.2672 4.42488 8.0797L4.44988 8.0772H4.45738C4.48988 8.0772 4.55738 8.0847 4.63988 8.1472C4.74488 8.2272 4.83988 8.3672 4.92738 8.5597ZM5.21488 8.5497C5.14593 8.51831 5.08193 8.47704 5.02488 8.4272C4.87857 8.30092 4.76457 8.14149 4.69238 7.9622C4.69238 7.9622 4.71488 7.9497 4.74988 7.9472C4.75154 7.94715 4.75321 7.94715 4.75488 7.9472H4.76488C4.81488 7.9472 4.88738 7.9697 4.96738 8.0572C5.06238 8.1572 5.14488 8.3222 5.21738 8.5497H5.21488ZM4.46738 8.5272C4.36988 8.5272 4.33738 8.4772 4.32738 8.4522C4.31769 8.42847 4.31425 8.40264 4.31738 8.3772C4.33379 8.37356 4.35057 8.37188 4.36738 8.3722C4.39843 8.37122 4.42928 8.37749 4.45749 8.39051C4.48569 8.40353 4.51048 8.42294 4.52988 8.4472C4.53488 8.4572 4.54988 8.4822 4.53738 8.5047C4.52738 8.5197 4.50488 8.5297 4.46738 8.5297V8.5272ZM4.25488 8.2572C4.17951 8.25802 4.10422 8.25216 4.02988 8.2397C3.94488 8.2247 3.89738 8.1522 3.86988 8.0922C3.84488 8.0297 3.83488 7.9672 3.83488 7.9672C4.09988 7.9747 4.22738 8.0522 4.28488 8.1172C4.32119 8.15456 4.34405 8.20293 4.34988 8.2547C4.34988 8.2547 4.30988 8.2597 4.25488 8.2597V8.2572ZM4.52988 7.9822C4.50851 7.95486 4.48849 7.92649 4.46988 7.8972C4.43738 7.8472 4.40988 7.7972 4.40988 7.7572C4.40988 7.7147 4.39988 7.6322 4.39488 7.5822L4.37988 7.4697C4.38738 7.4697 4.54488 7.5297 4.54488 7.6797C4.54488 7.8297 4.52988 7.9797 4.52988 7.9797V7.9822ZM4.32488 7.9672H4.31988C4.14838 7.91584 3.99213 7.82312 3.86488 7.6972C3.82238 7.6472 3.79488 7.5672 3.78738 7.4622C3.78238 7.3872 3.78738 7.3247 3.78738 7.3172C3.79634 7.31483 3.80564 7.31398 3.81488 7.3147C3.84988 7.3147 3.88988 7.3297 3.93988 7.3647C3.98629 7.39757 4.02979 7.43437 4.06988 7.4747C4.14988 7.5547 4.21238 7.6347 4.21238 7.6347C4.21988 7.6447 4.26238 7.7272 4.29988 7.8072C4.31743 7.84394 4.33084 7.8825 4.33988 7.9222C4.34238 7.9372 4.34488 7.9472 4.33988 7.9572C4.33869 7.96134 4.33602 7.9649 4.33238 7.9672C4.32909 7.96795 4.32567 7.96795 4.32238 7.9672H4.32488Z" fill="#435125"/>
<path d="M7.14887 9.9647C7.15082 9.96334 7.15251 9.96165 7.15387 9.9597H7.15637L7.18887 9.9247L7.28387 9.8122L7.40637 9.6547L7.42137 9.6322L7.57637 9.5847L7.69137 9.5322L7.63137 9.4647L7.42137 9.5522L7.26637 9.5847L6.97887 9.7972L7.06137 9.8697C7.09073 9.89706 7.11829 9.92628 7.14387 9.9572L7.12637 9.9447L7.10637 9.9597L7.14637 9.9647H7.14887ZM8.21387 9.6447C8.35484 9.64344 8.49292 9.60461 8.61387 9.5322C8.61387 9.5322 8.59637 9.4997 8.55637 9.4722C8.51637 9.4422 8.44637 9.4097 8.33137 9.4072C8.19637 9.4072 8.03137 9.4547 7.84387 9.5422C7.9559 9.60835 8.08377 9.64291 8.21387 9.6422V9.6447ZM8.80137 9.5147C8.82637 9.5147 8.85137 9.5047 8.86637 9.4897C8.88055 9.4724 8.89002 9.45173 8.89387 9.4297C8.90051 9.40189 8.90304 9.37325 8.90137 9.3447C8.89095 9.34099 8.87992 9.3393 8.86887 9.3397C8.81887 9.3397 8.77887 9.3822 8.76137 9.4247C8.75137 9.4497 8.74887 9.4697 8.75637 9.4872C8.76137 9.5022 8.78137 9.5122 8.80137 9.5122V9.5147ZM7.76887 9.3947C8.11637 9.3447 8.26387 9.2197 8.32637 9.1222C8.39137 9.0197 8.37637 8.9222 8.37637 8.9222C8.37637 8.9222 8.35637 8.9172 8.32637 8.9172C8.23137 8.9172 7.99637 8.9647 7.76887 9.3922V9.3947ZM8.48137 9.3247C8.62887 9.3247 8.74137 9.2997 8.81637 9.2497C8.84843 9.22956 8.87437 9.20103 8.89137 9.1672C8.89673 9.15446 8.90011 9.14097 8.90137 9.1272C8.84437 9.10344 8.78313 9.09153 8.72137 9.0922C8.63214 9.0954 8.54444 9.11627 8.46333 9.15361C8.38222 9.19094 8.30933 9.244 8.24887 9.3097C8.33387 9.3197 8.41137 9.3247 8.48137 9.3247ZM9.19887 9.2997C9.35387 9.2997 9.56887 9.2497 9.70387 9.1172C9.70387 9.1172 9.55637 9.0797 9.39387 9.0747H9.36387C9.21637 9.0747 9.10387 9.1022 9.02887 9.1597C9.00387 9.1797 8.98887 9.1972 8.98637 9.2147C8.98387 9.2297 8.99137 9.2447 9.00637 9.2572C9.04137 9.2822 9.10137 9.2972 9.18637 9.2972H9.19887V9.2997ZM9.70637 9.0372C9.71604 9.03702 9.72555 9.03468 9.7342 9.03035C9.74285 9.02603 9.75042 9.01982 9.75637 9.0122C9.76682 8.99731 9.77367 8.98019 9.77637 8.9622C9.78387 8.9272 9.78137 8.8922 9.78137 8.8897C9.77349 8.88626 9.76497 8.88456 9.75637 8.8847C9.73387 8.8847 9.71637 8.8972 9.70637 8.9097C9.69117 8.92359 9.67922 8.94066 9.67137 8.9597C9.66637 8.9822 9.66387 8.9997 9.67137 9.0147C9.67137 9.0247 9.68637 9.0397 9.70387 9.0397L9.70637 9.0372ZM8.53387 9.0122C8.55887 9.0122 8.58387 9.0022 8.59887 8.9872C8.61305 8.9699 8.62252 8.94923 8.62637 8.9272C8.63301 8.89939 8.63554 8.87075 8.63387 8.8422C8.62345 8.8385 8.61242 8.8368 8.60137 8.8372C8.55137 8.8372 8.50887 8.8797 8.49387 8.9222C8.48387 8.9472 8.48137 8.9672 8.48637 8.9847C8.49387 8.9997 8.51137 9.0097 8.53637 9.0097L8.53387 9.0122ZM9.10387 8.9872C9.41887 8.9772 9.58387 8.8872 9.66387 8.8122C9.69874 8.78206 9.72758 8.74558 9.74887 8.7047C9.76137 8.6797 9.76637 8.6597 9.76637 8.6547C9.76637 8.6497 9.73637 8.6447 9.69137 8.6447H9.68137C9.57637 8.6447 9.35887 8.6897 9.10637 8.9872H9.10387ZM8.76387 8.9572C8.9438 8.93764 9.11109 8.85532 9.23637 8.7247C9.28249 8.67424 9.31742 8.61461 9.33887 8.5497C9.33887 8.5497 9.30887 8.5422 9.26387 8.5397C9.25554 8.53941 9.2472 8.53941 9.23887 8.5397C9.11387 8.5422 8.88137 8.5997 8.76387 8.9572ZM10.0639 8.8322C10.1437 8.83293 10.2234 8.82454 10.3014 8.8072C10.4339 8.7722 10.4914 8.7222 10.5164 8.6847C10.5266 8.66968 10.5334 8.65262 10.5364 8.6347C10.5372 8.62806 10.5372 8.62134 10.5364 8.6147C10.5364 8.6147 10.4489 8.5897 10.3264 8.5872C10.2643 8.58563 10.2023 8.59066 10.1414 8.6022C10.0138 8.62907 9.90025 8.70095 9.82137 8.8047C9.82137 8.8047 9.92137 8.8347 10.0639 8.8347V8.8322ZM9.47637 8.6222C9.48794 8.62251 9.49945 8.62045 9.5102 8.61615C9.52095 8.61185 9.5307 8.6054 9.53887 8.5972C9.55305 8.5799 9.56252 8.55923 9.56637 8.5372C9.57637 8.4972 9.57387 8.4572 9.57387 8.4522C9.5644 8.44794 9.55424 8.4454 9.54387 8.4447H9.54137C9.49137 8.4447 9.45137 8.4897 9.43387 8.5322C9.42387 8.5572 9.42387 8.5772 9.42887 8.5922C9.43637 8.6097 9.45387 8.6197 9.47637 8.6197V8.6222ZM9.91637 8.5597C10.0008 8.53577 10.0815 8.50045 10.1564 8.4547C10.2664 8.3872 10.4039 8.2672 10.4189 8.0797L10.3939 8.0772H10.3864C10.3539 8.0772 10.2864 8.0847 10.2039 8.1472C10.0989 8.2272 10.0039 8.3672 9.91637 8.5597ZM9.62887 8.5497C9.69782 8.51831 9.76182 8.47704 9.81887 8.4272C9.96518 8.30092 10.0792 8.14149 10.1514 7.9622C10.1514 7.9622 10.1289 7.9497 10.0939 7.9472C10.0922 7.94715 10.0905 7.94715 10.0889 7.9472H10.0789C10.0289 7.9472 9.95637 7.9697 9.87637 8.0572C9.78137 8.1572 9.69887 8.3222 9.62637 8.5497H9.62887ZM10.3764 8.5272C10.4739 8.5272 10.5064 8.4772 10.5164 8.4522C10.5261 8.42847 10.5295 8.40264 10.5264 8.3772C10.51 8.37356 10.4932 8.37188 10.4764 8.3722C10.4453 8.37122 10.4145 8.37749 10.3863 8.39051C10.3581 8.40353 10.3333 8.42294 10.3139 8.4472C10.3089 8.4572 10.2939 8.4822 10.3064 8.5047C10.3164 8.5197 10.3389 8.5297 10.3764 8.5297V8.5272ZM10.5889 8.2572C10.6642 8.25802 10.7395 8.25216 10.8139 8.2397C10.8989 8.2247 10.9464 8.1522 10.9739 8.0922C10.9989 8.0297 11.0089 7.9672 11.0089 7.9672C10.7439 7.9747 10.6164 8.0522 10.5589 8.1172C10.5226 8.15456 10.4997 8.20293 10.4939 8.2547C10.4939 8.2547 10.5339 8.2597 10.5889 8.2597V8.2572ZM10.3139 7.9822C10.3352 7.95486 10.3553 7.92649 10.3739 7.8972C10.4064 7.8472 10.4339 7.7972 10.4339 7.7572C10.4339 7.7147 10.4439 7.6322 10.4489 7.5822L10.4639 7.4697C10.4564 7.4697 10.2989 7.5297 10.2989 7.6797C10.2989 7.8297 10.3139 7.9797 10.3139 7.9797V7.9822ZM10.5189 7.9672H10.5239C10.6954 7.91584 10.8516 7.82312 10.9789 7.6972C11.0214 7.6472 11.0489 7.5672 11.0564 7.4622C11.0614 7.3872 11.0564 7.3247 11.0564 7.3172C11.0474 7.31483 11.0381 7.31398 11.0289 7.3147C10.9939 7.3147 10.9539 7.3297 10.9039 7.3647C10.8575 7.39757 10.814 7.43437 10.7739 7.4747C10.6939 7.5547 10.6314 7.6347 10.6314 7.6347C10.6239 7.6447 10.5814 7.7272 10.5439 7.8072C10.5263 7.84394 10.5129 7.8825 10.5039 7.9222C10.5014 7.9372 10.4989 7.9472 10.5039 7.9572C10.5051 7.96134 10.5077 7.9649 10.5114 7.9672C10.5147 7.96795 10.5181 7.96795 10.5214 7.9672H10.5189Z" fill="#435125"/>
<path d="M12.9745 1.91016L12.9295 1.92766L12.9095 1.93516L12.8545 1.93266L12.7995 1.95766L12.7045 2.02266L12.702 2.02516L12.6645 2.03516L12.632 2.02016L12.6145 2.03016L12.607 2.06766L12.5895 2.09516L12.567 2.11016L12.492 2.11766L12.4295 2.15266L12.3445 2.12766L12.307 2.14516L12.2245 2.22016L12.182 2.23766H12.1695L12.112 2.23516L12.0895 2.24266L12.0545 2.27516L11.9895 2.28016L11.967 2.29516L11.9345 2.36016L11.8995 2.40016L11.8795 2.40266L11.8595 2.39516L11.842 2.39766L11.8345 2.44016L11.8195 2.45766L11.7745 2.47266L11.7395 2.50266L11.707 2.51766H11.657L11.6145 2.54266L11.537 2.54766L11.5045 2.57766L11.497 2.58516L11.482 2.59266L11.457 2.60766L11.452 2.61266L11.422 2.60766L11.387 2.62016L11.372 2.60016L11.347 2.61266L11.317 2.61516L11.277 2.59766L11.2445 2.58266L11.222 2.58766L11.2145 2.62516V2.63016L11.1895 2.66016L11.147 2.68766L11.142 2.69516L11.092 2.76016L10.997 2.86016L10.917 2.90016L10.8345 2.92516L10.777 2.97266L10.627 3.04766L10.3845 3.16766L10.3345 3.18266L10.2645 3.19266L10.1395 3.24016L10.0295 3.27266L10.022 3.27516L10.002 3.28266L9.84453 3.33016L9.77203 3.32016L9.72953 3.33766L9.61703 3.32516H9.53953L9.48953 3.33516L9.39703 3.38016L9.23953 3.45516L9.18953 3.50516L9.10953 3.54516L9.01453 3.57516V3.53516L8.98203 3.54516L8.95703 3.55266L8.88203 3.56266H8.83953L8.81203 3.55516H8.80703L8.65203 3.60766L8.47703 3.62516L8.38953 3.65266H8.32453L8.28453 3.66516L8.20453 3.67516L8.17453 3.66766L8.16953 3.66516L7.93453 3.67516L7.82703 3.66266L7.77703 3.67516L7.68953 3.64516L7.56453 3.63016L7.53453 3.62266L7.46953 3.60266L7.43953 3.62016L7.41453 3.62266L7.36453 3.60266H7.34453L7.29953 3.61766L7.27453 3.61266L7.24953 3.59266L7.19703 3.58516L7.16203 3.55766L6.97453 3.58266L6.92453 3.56766L6.75203 3.51766H6.72703L6.69203 3.54266L6.64203 3.56266L6.59453 3.57266L6.53453 3.57516L6.46453 3.55766L6.39453 3.52266L6.36703 3.51516L6.30703 3.52266H6.28953L6.17953 3.46516L6.03953 3.37766L5.94453 3.33016L5.90703 3.32516L5.90203 3.34266L5.91953 3.39766L5.92703 3.45516V3.50516L5.92453 3.53766L5.93203 3.56516L5.96703 3.60516L5.98203 3.64266L5.99203 3.74766V3.85516L5.97453 4.02516L5.96953 4.05016L5.94953 4.14016L5.93203 4.22266L5.85953 4.44016L5.84203 4.46516L5.79203 4.49766L5.68453 4.57266L5.60453 4.61766L5.57953 4.62766L5.51453 4.63266H5.47453L5.42453 4.60516L5.37453 4.59266L5.30953 4.54516L5.23953 4.53016L5.15953 4.48516L5.13953 4.46016L5.09703 4.45516L5.03703 4.43766L5.01453 4.43016L4.99953 4.42766L4.92453 4.42516L4.85203 4.39266L4.81453 4.38266H4.76453L4.71203 4.40766L4.68453 4.41766L4.64953 4.40516H4.62453L4.59953 4.44766L4.59453 4.45516L4.57453 4.46516H4.53203L4.51203 4.47266L4.48453 4.48516L4.45953 4.49516L4.44703 4.50016H4.43953L4.42703 4.50516H4.41203L4.38203 4.49016L4.36703 4.48266L4.34203 4.47766L4.32953 4.48516L4.32703 4.53266L4.31453 4.56016L4.27453 4.59516L4.23453 4.63016L4.20953 4.67016L4.13453 4.83766L4.08703 4.90516L4.07453 4.92266L4.02453 4.97516L3.98203 5.00766L3.88453 5.08266L3.79203 5.12016L3.71203 5.13516H3.67203L3.59703 5.12516L3.53203 5.10516L3.45703 5.06016L3.37953 4.99516L3.26203 4.88266L3.24703 4.87266L3.24203 4.87016L3.20703 4.84516H3.17953L3.16953 4.86516L3.16203 4.89016L3.15703 4.91266L3.14453 5.03766V5.04516L3.15203 5.09766L3.24203 5.22266L3.26703 5.28766L3.27203 5.29516L3.28953 5.32516L3.30453 5.35016L3.33703 5.44016L3.31453 5.49016L3.32453 5.52516L3.29953 5.54516L3.29453 5.57516L3.37203 5.67516L3.38953 5.71766L3.37203 5.77766L3.33953 5.81266L3.33203 5.82016L3.33703 5.84516L3.37203 5.88016L3.43453 5.93516L3.46703 6.01516L3.49203 6.04016L3.52203 6.03266L3.53703 6.04516H3.56203L3.58703 6.07016L3.60203 6.07516L3.62703 6.08766L3.64703 6.11266L3.64953 6.19266L3.68703 6.28766V6.35016L3.71203 6.38766L3.71703 6.41766L3.70453 6.50016L3.73453 6.52516L3.76453 6.52016L3.78453 6.52266L3.81703 6.55016L3.85703 6.61016L3.89703 6.60516L3.92203 6.61516L4.03953 6.72266L4.06453 6.73766L4.08703 6.74766L4.11203 6.77266L4.14703 6.74766H4.15203L4.19203 6.74266L4.20953 6.75516L4.24453 6.77766H4.28703L4.38703 6.80766L4.42703 6.81766L4.51203 6.87016L4.54953 6.89266L4.56953 6.91016L4.59953 6.93516L4.65453 6.96016L4.70453 6.97016L4.72953 6.97516L4.75203 6.98266L4.85703 7.02516L4.91453 7.03766L4.96453 7.05766L5.00453 7.07016H5.03453L5.07453 7.03766H5.11203L5.14453 7.04266L5.17703 7.03766L5.22703 7.00766L5.23453 6.99266L5.26953 6.97766L5.38953 6.96266L5.42453 6.97266L5.51453 6.93516L5.57453 6.95016L5.62453 6.93266L5.74203 6.95766L5.77203 6.98016L5.80703 7.01766H5.84953L5.83203 7.04516L5.88203 7.10016L5.92953 7.16766L5.93203 7.17766L5.96453 7.27516L5.98953 7.31016L6.00703 7.35766V7.38766L5.98203 7.41016L5.97703 7.42016V7.42516L5.98203 7.43766L5.99203 7.43266L6.00953 7.42266L6.03453 7.41766L6.07453 7.42266L6.10203 7.42516L6.14453 7.40516L6.17453 7.39016L6.21953 7.41016H6.26953L6.29203 7.41766L6.35203 7.44516L6.38203 7.44766L6.39203 7.44016L6.39953 7.42516L6.39703 7.40516L6.37203 7.37766L6.32203 7.31766L6.30203 7.28766L6.28703 7.24516L6.28203 7.19016L6.27703 7.15266L6.28453 7.10266L6.29703 7.08516L6.30703 7.04516L6.30953 7.03516L6.33953 6.99766L6.41453 6.94766L6.49453 6.87766L6.55703 6.83516L6.62203 6.80766V6.80016L6.63203 6.80266L6.79703 6.74516L6.87203 6.73266L7.37203 6.76766L7.38953 6.76266L7.40703 6.71516L7.41453 6.70766L7.42203 6.70266L7.47703 6.67766L7.50203 6.67266L7.57203 6.69016L7.60203 6.69766L7.64953 6.67266H7.68203L7.74953 6.63516H7.79203L7.80953 6.63016L7.89203 6.57016L7.96953 6.54766L7.98953 6.53766L7.99703 6.53266L8.07953 6.49016L8.12953 6.45016L8.17453 6.42516L8.22453 6.41516L8.34953 6.40516L8.37703 6.36266L8.43203 6.35516L8.46453 6.31766L8.50203 6.30266L8.52953 6.26266L8.55453 6.23016L8.58453 6.21266L8.68703 6.20516L8.80703 6.22016L8.82453 6.21016L8.84953 6.11266L8.87953 6.09516L8.95453 5.98266V5.94266L8.95703 5.90766L8.96953 5.85766L8.96203 5.77266L8.97203 5.68266L9.01953 5.57016L9.06203 5.52516L9.12953 5.47766L9.16453 5.46266L9.21453 5.45516H9.21953L9.23203 5.45016H9.46203L9.51953 5.44766L9.66203 5.47266H9.67203L9.71953 5.49016L9.77453 5.53266L9.83453 5.59016L9.84453 5.60016L9.88203 5.61766L9.89453 5.62266L9.92453 5.61766L9.96953 5.59266L10.0045 5.56766L10.0495 5.54266V5.53766L10.077 5.50016L10.087 5.48266L10.177 5.44766L10.282 5.44266L10.2945 5.43516H10.2995L10.327 5.40016H10.352L10.417 5.42516L10.4595 5.41516L10.4945 5.42766L10.522 5.42516L10.572 5.41766L10.6295 5.45766L10.662 5.46266L10.7745 5.52766H10.7845L10.7895 5.53016L10.802 5.52516L10.822 5.52016H10.8245L10.827 5.52266L10.842 5.54016L10.8595 5.54266L10.8795 5.51766L10.872 5.50266L10.8695 5.49766L10.827 5.49016L10.792 5.42766L10.827 5.39016L10.772 5.32516L10.762 5.31266V5.31016L10.742 5.28016L10.647 5.13516L10.522 5.03516L10.4795 5.00266L10.4645 4.99016L10.397 4.92266L10.3495 4.86016L10.3445 4.84766L10.3345 4.82516L10.307 4.76516L10.257 4.72766L10.217 4.68266L10.132 4.56766L10.1195 4.55016L10.0995 4.53766H10.057L10.0545 4.53266H10.052V4.53016L10.072 4.51016L10.097 4.50516L10.1045 4.48266L10.062 4.36016V4.35516L10.0595 4.31766L10.092 4.14016L10.097 4.11766L10.157 4.00016L10.192 3.97016L10.232 3.89266L10.267 3.84266L10.2995 3.81016L10.3045 3.80766L10.362 3.77266L10.412 3.76516L10.4595 3.75766L10.542 3.78266H10.617L10.6345 3.78016L10.6695 3.77516L10.727 3.75766L10.7545 3.74016L10.7695 3.72016L10.7995 3.62016L10.8095 3.58766L10.827 3.55266L10.9345 3.43016L11.0145 3.35516L11.1945 3.22516L11.282 3.17266L11.327 3.14516L11.7295 2.96516L11.8345 2.86016L11.8895 2.80516L11.9845 2.74016L12.097 2.69266L12.197 2.61766L12.217 2.59016L12.242 2.50266L12.267 2.49766L12.2845 2.45516L12.292 2.44266L12.3695 2.38766L12.3795 2.38266L12.687 2.22766L12.732 2.23516L12.757 2.19766L12.8445 2.18266H12.862L12.8845 2.17016L12.902 2.13766V2.13016L12.9045 2.04516L12.9245 2.02266L12.9345 1.96766L12.9445 1.95266L12.9545 1.94016L12.9795 1.92266L12.9745 1.91266V1.91016Z" fill="#D47600"/>
</svg>
