<svg width="16" height="12" viewBox="0 0 16 12" fill="none" xmlns="http://www.w3.org/2000/svg">
<mask id="mask0_511_4798" style="mask-type:luminance" maskUnits="userSpaceOnUse" x="0" y="0" width="16" height="12">
<path d="M0 0H15.9984V12H0V0Z" fill="white"/>
</mask>
<g mask="url(#mask0_511_4798)">
<path fill-rule="evenodd" clip-rule="evenodd" d="M-1.00098 9H16.999V12H-1.00098V9ZM-1.00098 0H16.999V3H-1.00098V0Z" fill="#FF0000"/>
<path fill-rule="evenodd" clip-rule="evenodd" d="M-1.00098 3H16.999V9H-1.00098V3Z" fill="white"/>
<path d="M7.90755 3.04727C7.72474 3.41055 7.60286 3.41055 7.29818 3.65664C7.1763 3.77617 6.99349 3.83711 7.23724 3.96133C6.99115 4.08086 6.86927 4.1418 6.7474 4.38555L6.80833 4.44648C6.80833 4.44648 7.04271 4.33398 7.05208 4.38555C7.09427 4.43477 6.7474 4.61992 6.70286 4.65039L6.44505 4.81445C6.13802 5.05586 5.95286 4.99492 5.7724 5.36055L6.38177 5.29961C6.50365 5.72617 6.07708 5.78711 5.7724 5.96992L5.28255 6.27461C5.40677 6.70117 5.7724 6.45742 6.07708 6.33555L6.13802 6.39648V6.51836L5.52865 6.82305C5.52865 6.82305 4.80677 7.23555 4.79505 7.24961C4.79036 7.27305 4.79505 7.37148 4.79505 7.37148C5.0388 7.43242 5.40443 7.49336 5.65052 7.37148C5.95521 7.24961 6.01615 7.12773 6.38177 7.12773C6.02986 7.40232 5.60723 7.57137 5.16302 7.61523V7.85898C5.52865 7.85898 5.7724 7.85898 6.07708 7.79805L6.86927 7.5543C7.05208 7.5543 7.23724 7.73711 7.17396 7.91992C6.99349 8.59023 6.2599 8.46836 6.01615 9.0168L6.99115 8.64883C7.2349 8.52695 7.47865 8.40742 7.78333 8.46836C8.14896 8.59023 8.14896 8.83398 8.63646 8.95586L8.51458 8.65117C8.63646 8.71211 8.75833 8.71211 8.88255 8.77305C9.18724 8.89492 9.24818 9.0168 9.6138 8.95586C9.30911 8.59023 9.24818 8.65117 9.00443 8.40742C8.76068 8.0418 8.63646 7.49336 9.00443 7.43242L9.43099 7.5543C9.85755 7.61523 9.85755 7.49336 10.4669 7.73711C10.8349 7.85898 10.9568 8.0418 11.381 7.91992C11.2005 7.49336 10.5302 7.18867 10.1013 7.0668C10.5911 6.76211 10.4669 7.18867 11.1396 7.00586V6.88398C10.6544 6.51602 10.4693 6.21133 9.79896 6.21133L10.8372 6.08945V5.96758C10.8372 5.96758 9.81302 5.70039 9.78958 5.68867C9.79661 5.6582 9.8224 5.61133 9.89036 5.5832C10.0849 5.70977 10.6708 5.6957 10.706 5.69336C10.6872 5.54336 10.4083 5.41914 10.1669 5.29727C10.1669 5.29727 9.11927 4.65273 9.11458 4.59648C9.13568 4.43242 9.54349 4.62227 9.98177 4.74883C9.8599 4.50508 9.61615 4.3832 9.3724 4.32227L9.73802 4.26133C9.49427 3.71289 8.8849 3.77383 8.51927 3.53008C8.27318 3.34727 8.27318 3.22539 7.90755 3.04492V3.04727Z" fill="#007900"/>
<path fill-rule="evenodd" clip-rule="evenodd" d="M7.24883 7.10117C7.29336 6.9582 7.35195 6.82929 7.08008 6.70507C6.8082 6.58085 7.21602 7.1996 7.24883 7.10351V7.10117ZM7.56992 6.81288C7.51602 6.81992 7.48555 7.01913 7.5957 7.07538C7.71758 7.09413 7.61914 6.81523 7.56992 6.81288ZM7.88633 6.78945C7.83008 6.8082 7.82773 7.08945 8.02695 7.03788C8.22852 6.98866 8.02695 6.76835 7.88633 6.79179V6.78945ZM8.25664 6.06992C8.29883 5.9996 8.2543 5.71835 8.0832 5.83554C7.90977 5.95507 8.20039 6.08867 8.25664 6.06992ZM7.88164 5.83554C7.93555 5.81445 7.94023 5.64101 7.78789 5.68788C7.64023 5.73242 7.8418 5.8707 7.88164 5.83554ZM7.54414 5.90351C7.54414 5.90351 7.43867 5.7582 7.35664 5.78867C7.25586 5.8871 7.55117 5.90585 7.54414 5.90351ZM6.38164 6.36757C6.42617 6.37226 6.75664 6.31366 6.87148 6.18476C6.98633 6.05585 6.2832 6.23866 6.2832 6.24101C6.2832 6.24335 6.34883 6.35585 6.38164 6.36757ZM9.68867 5.54726C9.70508 5.51679 9.51289 5.38085 9.39805 5.43476C9.36758 5.53554 9.68867 5.56835 9.68867 5.54726ZM9.03711 5.21913C9.07461 5.16757 8.95508 4.95429 8.71602 5.07382C8.47695 5.19101 8.9668 5.30351 9.03711 5.22148V5.21913ZM8.28477 5.09492C8.28477 5.09492 8.34336 4.90273 8.48633 4.94023C8.65039 5.06445 8.2918 5.10195 8.28477 5.09492ZM8.14414 4.9496C8.1207 4.8957 7.97305 4.92617 7.80195 5.04101C7.62852 5.15117 8.1957 5.07382 8.14414 4.94726V4.9496ZM8.58242 4.43163C8.58242 4.43163 8.73477 4.36132 8.78164 4.43163C8.84492 4.53242 8.58008 4.43163 8.58242 4.43163ZM8.45352 4.36367C8.42305 4.30273 8.2543 4.2957 8.25898 4.3871C8.23086 4.45742 8.4793 4.44335 8.45352 4.36367ZM8.05039 4.36367C8.03398 4.32851 7.79258 4.36366 7.72227 4.50898C7.83945 4.56523 8.1043 4.45507 8.05039 4.36367ZM7.53477 4.51132C7.53477 4.51132 7.2207 4.70585 7.19961 4.84648C7.20898 4.96835 7.59336 4.62617 7.59336 4.62617C7.59336 4.62617 7.62617 4.49023 7.53711 4.51132H7.53477ZM7.18555 4.33554C7.19492 4.2957 7.34258 4.20429 7.3543 4.21132C7.36602 4.25117 7.23477 4.35898 7.18555 4.33554ZM7.28633 5.07617C7.29336 5.01757 6.91133 5.02226 7.0543 5.19804C7.17617 5.3457 7.31211 5.10195 7.28633 5.07617ZM6.93477 5.32695C6.91602 5.28945 6.88789 5.18632 6.83633 5.17695C6.7918 5.17695 6.56211 5.22382 6.54336 5.26132C6.53398 5.29179 6.63945 5.48163 6.67461 5.48632C6.7168 5.50273 6.93008 5.3457 6.93711 5.32695H6.93477ZM9.00664 6.6207C9.01836 6.57851 9.41211 6.44492 9.5457 6.57382C9.70508 6.79179 8.99727 6.69101 9.00664 6.6207ZM10.0848 6.87616C10.1715 6.73085 9.81992 6.55742 9.67227 6.72382C9.72383 6.92304 10.0145 6.9957 10.0848 6.87616Z" fill="white" stroke="white" stroke-width="0.375" stroke-linecap="round" stroke-linejoin="round"/>
</g>
</svg>
